<svg width="48" height="49" viewBox="0 0 48 49" fill="none" xmlns="http://www.w3.org/2000/svg">
<path d="M42 33.6678V15.1803C41.9986 14.9133 41.9267 14.6513 41.7918 14.4209C41.6568 14.1905 41.4635 13.9997 41.2312 13.8678L24.7312 4.58656C24.5089 4.4582 24.2567 4.39063 24 4.39062C23.7433 4.39062 23.4911 4.4582 23.2687 4.58656L6.76875 13.8678C6.53653 13.9997 6.34319 14.1905 6.20822 14.4209C6.07326 14.6513 6.00143 14.9133 6 15.1803V33.6678C6.00143 33.9349 6.07326 34.1968 6.20822 34.4272C6.34319 34.6577 6.53653 34.8484 6.76875 34.9803L23.2687 44.2616C23.4911 44.3899 23.7433 44.4575 24 44.4575C24.2567 44.4575 24.5089 44.3899 24.7312 44.2616L41.2312 34.9803C41.4635 34.8484 41.6568 34.6577 41.7918 34.4272C41.9267 34.1968 41.9986 33.9349 42 33.6678V33.6678Z" stroke="#115175" stroke-width="2" stroke-linecap="round" stroke-linejoin="round"/>
<path d="M41.7945 14.4062L24.1695 24.4188L6.20703 14.4062" stroke="#115175" stroke-width="2" stroke-linecap="round" stroke-linejoin="round"/>
<path d="M24.1687 24.4219L24 44.4469" stroke="#115175" stroke-width="2" stroke-linecap="round" stroke-linejoin="round"/>
<path d="M33.1875 9.32812L24 14.5031L14.8125 9.32812" stroke="#115175" stroke-width="2" stroke-linecap="round" stroke-linejoin="round"/>
<path d="M33 39.6125V29.2812L42 24.2188" stroke="#115175" stroke-width="2" stroke-linecap="round" stroke-linejoin="round"/>
<path d="M15 39.6125V29.2812L6 24.2188" stroke="#115175" stroke-width="2" stroke-linecap="round" stroke-linejoin="round"/>
</svg>
