<svg width="48" height="49" viewBox="0 0 48 49" fill="none" xmlns="http://www.w3.org/2000/svg">
<path d="M43.157 26.1078V16.2383C43.1572 16.0467 43.1069 15.8583 43.0111 15.6923C42.9154 15.5264 42.7775 15.3885 42.6115 15.2927L33.818 10.2413V6.69254C33.8183 6.5032 33.7692 6.31709 33.6757 6.15245C33.5821 5.98782 33.4473 5.85036 33.2845 5.75361L24.5564 0.572373H24.5433L24.0229 0.421875H24.0098L23.9313 0.436053L23.5363 0.545082L23.4414 0.572373L14.7133 5.75361C14.5505 5.85036 14.4157 5.98782 14.3221 6.15245C14.2286 6.31709 14.1796 6.5032 14.1798 6.69254V10.2686L5.4354 15.2927C5.26939 15.3885 5.13156 15.5264 5.03579 15.6923C4.94003 15.8583 4.88971 16.0467 4.88989 16.2383V26.0773L0.533518 28.6641C0.370858 28.7607 0.236137 28.8981 0.142602 29.0625C0.0490675 29.227 -7.92368e-05 29.4129 9.58919e-08 29.6021V39.9624C-7.92368e-05 40.1516 0.0490675 40.3374 0.142602 40.5019C0.236137 40.6663 0.370858 40.8036 0.533518 40.9003L9.26158 46.0815L9.81471 46.2353L10.3722 46.0815L14.9414 43.3692L23.4785 48.2768L24.024 48.4219L24.5695 48.2768L33.0794 43.3879L37.6245 46.0859L38.1809 46.2353L38.7384 46.0815L47.4665 40.9003C47.6291 40.8036 47.7639 40.6663 47.8574 40.5019C47.9509 40.3374 48.0001 40.1516 48 39.9624V29.6021C48.0001 29.4129 47.9509 29.227 47.8574 29.0625C47.7639 28.8981 47.6291 28.7607 47.4665 28.6641L43.157 26.1078ZM45.818 37.7213L39.297 33.635V26.3521L45.818 30.2226V37.7213ZM24.0207 12.6154L30.8537 16.8981L23.9978 20.9702L17.1452 16.9014L24.0207 12.6154ZM31.6349 14.8119L25.1139 10.7233V3.44056L31.6349 7.31317V14.8119ZM22.9319 3.41114V10.7179L16.3608 14.8173V7.31317L22.9319 3.41114ZM8.74881 26.3216V33.6338L2.17765 37.7289V30.2236L8.74881 26.3216ZM17.4518 30.2226V37.7213L10.9297 33.635V26.3521L17.4518 30.2226ZM9.81471 43.8796L2.96208 39.8119L9.83545 35.526L16.6695 39.8087L9.81471 43.8796ZM24.0218 46.0727L17.095 42.0944L19.0992 40.9035C19.2619 40.8068 19.3965 40.6696 19.4901 40.5052C19.5836 40.3407 19.6328 40.1548 19.6327 39.9656V29.6053C19.6328 29.4161 19.5836 29.2303 19.4901 29.0659C19.3965 28.9014 19.2619 28.7641 19.0992 28.6674L10.3711 23.4839H10.358L9.83762 23.3345H9.82453L9.74599 23.3476L9.35105 23.4568L9.25612 23.4818L7.06645 24.7828V16.8697L14.1765 12.7856V17.0562C14.1765 17.2454 14.2256 17.4312 14.3191 17.5956C14.4127 17.7601 14.5474 17.8974 14.7101 17.9941L23.4381 23.1764L23.9956 23.3291L24.5531 23.1764L33.2812 17.9941C33.4439 17.8974 33.5786 17.7601 33.6721 17.5956C33.7657 17.4312 33.8148 17.2454 33.8147 17.0562V12.7551L40.9739 16.8676V24.8101L38.7352 23.4796H38.7221L38.2017 23.3301H38.1875L38.11 23.3433L37.7151 23.4524L37.6201 23.4774L28.8921 28.6609C28.7294 28.7575 28.5947 28.8948 28.5012 29.0592C28.4077 29.2236 28.3585 29.4096 28.3586 29.5988V39.9591C28.3585 40.1483 28.4077 40.3342 28.5012 40.4987C28.5947 40.6631 28.7294 40.8003 28.8921 40.897L30.9203 42.0966L24.0218 46.0727ZM37.1139 26.3216V33.6338L30.5439 37.7289V30.2236L37.1139 26.3216ZM38.1809 43.8796L31.3283 39.8119L38.2017 35.526L45.0357 39.8087L38.1809 43.8796Z" fill="#115175"/>
</svg>
