<svg width="21" height="21" viewBox="0 0 21 21" fill="none" xmlns="http://www.w3.org/2000/svg">
<path d="M6.71094 6.10156H13.8972V15.1124H6.71094V6.10156ZM12.3251 9.26256C12.3271 9.17367 12.311 9.0853 12.2777 9.00283C12.2445 8.92035 12.1949 8.84549 12.1318 8.78279C12.0687 8.72009 11.9936 8.67086 11.9109 8.63809C11.8282 8.60531 11.7397 8.58969 11.6508 8.59215C11.5183 8.59286 11.389 8.63279 11.2792 8.70688C11.1694 8.78098 11.084 8.88593 11.0338 9.00849C10.9836 9.13105 10.9708 9.26573 10.9971 9.39554C11.0234 9.52535 11.0875 9.64446 11.1815 9.73786C11.2754 9.83126 11.3949 9.89475 11.5249 9.92033C11.6549 9.94591 11.7896 9.93242 11.9119 9.88158C12.0342 9.83073 12.1388 9.7448 12.2123 9.63463C12.2858 9.52447 12.3251 9.395 12.3251 9.26256ZM8.95732 12.629C9.04583 12.6295 9.13356 12.6123 9.21538 12.5786C9.2972 12.5449 9.37149 12.4952 9.43391 12.4324C9.49633 12.3697 9.54564 12.2952 9.57896 12.2132C9.61228 12.1312 9.62895 12.0435 9.62799 11.955C9.61554 11.7852 9.53929 11.6264 9.41455 11.5105C9.28981 11.3946 9.12582 11.3302 8.95552 11.3302C8.78522 11.3302 8.62123 11.3946 8.49648 11.5105C8.37174 11.6264 8.29549 11.7852 8.28304 11.955C8.28107 12.044 8.29717 12.1326 8.33036 12.2152C8.36355 12.2979 8.41314 12.373 8.47615 12.436C8.53916 12.499 8.61428 12.5485 8.69697 12.5817C8.77967 12.6149 8.86823 12.631 8.95732 12.629ZM8.95732 8.59215C8.77945 8.59215 8.60886 8.66278 8.48308 8.78851C8.35731 8.91423 8.28665 9.08475 8.28665 9.26256C8.28665 9.44036 8.35731 9.61088 8.48308 9.7366C8.60886 9.86233 8.77945 9.93296 8.95732 9.93296C9.13519 9.93296 9.30578 9.86233 9.43155 9.7366C9.55733 9.61088 9.62799 9.44036 9.62799 9.26256C9.62799 9.08475 9.55733 8.91423 9.43155 8.78851C9.30578 8.66278 9.13519 8.59215 8.95732 8.59215ZM12.3179 11.9622C12.3186 11.8296 12.28 11.6998 12.2068 11.5891C12.1337 11.4785 12.0295 11.392 11.9072 11.3406C11.7849 11.2892 11.6501 11.2752 11.5199 11.3004C11.3897 11.3256 11.2698 11.3888 11.1755 11.482C11.0812 11.5753 11.0167 11.6944 10.9901 11.8243C10.9636 11.9542 10.9761 12.089 11.0262 12.2118C11.0763 12.3346 11.1617 12.4397 11.2716 12.514C11.3815 12.5883 11.511 12.6283 11.6436 12.629C11.7328 12.6324 11.8218 12.6177 11.905 12.5856C11.9883 12.5535 12.0642 12.5047 12.128 12.4423C12.1918 12.3799 12.2422 12.3051 12.276 12.2226C12.3099 12.14 12.3266 12.0514 12.3251 11.9622H12.3179Z" fill="white"/>
<path d="M5.79715 15.1124H3.10366C2.6255 15.1124 2.16694 14.9225 1.82883 14.5845C1.49073 14.2466 1.30078 13.7882 1.30078 13.3102V7.90373C1.30044 7.43739 1.48096 6.98909 1.80438 6.65302C2.12781 6.31695 2.56897 6.11928 3.03515 6.10156C3.93298 6.10156 4.83802 6.10156 5.73225 6.10156H5.79715V15.1124Z" fill="white"/>
<path d="M14.8125 6.10156H17.4988C17.7355 6.10156 17.97 6.14818 18.1887 6.23874C18.4074 6.32931 18.6062 6.46206 18.7736 6.6294C18.941 6.79675 19.0738 6.99542 19.1644 7.21407C19.255 7.43272 19.3017 7.66706 19.3017 7.90373V13.2814C19.3063 13.7171 19.1529 14.1397 18.8699 14.471C18.5868 14.8024 18.1932 15.02 17.762 15.0835C17.6907 15.0968 17.6182 15.1028 17.5457 15.1016H14.9026H14.8125V6.10156Z" fill="white"/>
</svg>
