<svg width="48" height="48" viewBox="0 0 48 48" fill="none" xmlns="http://www.w3.org/2000/svg">
<path d="M8.77154 22.9641C8.58943 22.9537 8.41003 23.0119 8.26866 23.1272C8.12728 23.2424 8.03419 23.4065 8.00772 23.5869C7.98126 23.7674 8.02333 23.9513 8.12566 24.1023C8.22799 24.2533 8.38316 24.3605 8.56059 24.4028C10.979 24.9455 13.4485 25.2284 15.927 25.2466C26.4365 25.2466 31.879 19.2303 35.7563 12.8428L38.0978 14.2477C38.2174 14.3187 38.3547 14.354 38.4937 14.3496C38.6326 14.3452 38.7674 14.3011 38.8822 14.2227C38.997 14.1442 39.087 14.0346 39.1417 13.9068C39.1963 13.7789 39.2132 13.6381 39.1905 13.5009L37.6843 4.60727C37.6654 4.499 37.6226 4.39629 37.5591 4.30655C37.4957 4.21681 37.413 4.14228 37.3173 4.08834C37.2201 4.03582 37.1124 4.0059 37.0021 4.00079C36.8918 3.99567 36.7818 4.0155 36.6802 4.0588L28.7232 7.434C28.5936 7.48744 28.4823 7.57728 28.4026 7.69264C28.323 7.808 28.2785 7.94396 28.2745 8.08408C28.2705 8.22419 28.3071 8.36248 28.38 8.48221C28.4529 8.60194 28.5589 8.698 28.6852 8.75877L31.0858 9.93167C24.694 24.04 9.44658 23.0148 8.77154 22.9641ZM32.6975 9.88524C32.7692 9.71276 32.7724 9.51943 32.7066 9.34463C32.6408 9.16983 32.5108 9.02671 32.3431 8.94441L30.7567 8.1681L36.3933 5.77594L37.4776 12.1973L35.8702 11.2353C35.7882 11.1854 35.6971 11.1523 35.6023 11.1378C35.5074 11.1233 35.4106 11.1278 35.3175 11.1509C35.1293 11.2014 34.9676 11.3222 34.866 11.4885C30.9677 18.1207 25.8585 24.0189 15.4586 23.8079C21.0826 22.6097 28.7696 19.2345 32.7143 9.88101L32.6975 9.88524Z" fill="#E45D61"/>
<path d="M11.1291 32.2656C9.71991 32.2656 8.59766 33.6368 8.59766 35.3919V40.8766C8.59766 42.6317 9.69881 44.0029 11.1291 44.0029H14.5591C15.964 44.0029 17.0652 42.6317 17.0652 40.8766V35.3919C17.0652 33.6368 15.964 32.2656 14.5591 32.2656H11.1291ZM15.6096 35.3919V40.8766C15.6096 41.7668 15.1202 42.5642 14.5591 42.5642H11.1291C10.5679 42.5642 10.0785 41.7837 10.0785 40.8766V35.3919C10.0785 34.5017 10.5679 33.7043 11.1291 33.7043H14.5591C15.1202 33.7212 15.6096 34.5017 15.6096 35.3919Z" fill="#E45D61"/>
<path d="M21.4986 27.1094C20.0894 27.1094 18.9883 28.4805 18.9883 30.2356V40.8549C18.9883 42.61 20.0894 43.9811 21.4986 43.9811H24.9286C26.3336 43.9811 27.4347 42.61 27.4347 40.8549V30.2483C27.4347 28.4932 26.3336 27.122 24.9286 27.122L21.4986 27.1094ZM25.9792 30.2356V40.8549C25.9792 41.7451 25.4855 42.5425 24.9286 42.5425H21.4986C20.9375 42.5425 20.4438 41.762 20.4438 40.8549V30.2483C20.4438 29.3581 20.9375 28.5607 21.4986 28.5607H24.9286C25.4855 28.5776 25.9792 29.3581 25.9792 30.2483V30.2356Z" fill="#E45D61"/>
<path d="M36.3232 20.9531H32.8931C31.4882 20.9531 30.3828 22.3285 30.3828 24.0794V40.8668C30.3828 42.6219 31.4882 43.9931 32.8931 43.9931H36.3232C37.7323 43.9931 38.8546 42.6219 38.8546 40.8668V24.0794C38.8335 22.3285 37.7323 20.9531 36.3232 20.9531ZM37.3737 40.8668C37.3737 41.757 36.8843 42.5544 36.3232 42.5544H32.8931C32.332 42.5544 31.8426 41.7739 31.8426 40.8668V24.0794C31.8426 23.1892 32.332 22.3918 32.8931 22.3918H36.3232C36.8843 22.3918 37.3737 23.1681 37.3737 24.0794V40.8668Z" fill="#E45D61"/>
</svg>
