<svg width="40" height="41" viewBox="0 0 40 41" fill="none" xmlns="http://www.w3.org/2000/svg">
<path d="M15.0013 29.1302V30.7969C15.0013 31.4535 15.1306 32.1037 15.3819 32.7103C15.6332 33.3169 16.0015 33.8681 16.4658 34.3324C16.9301 34.7967 17.4813 35.165 18.0879 35.4163C18.6945 35.6675 19.3447 35.7969 20.0013 35.7969C20.6579 35.7969 21.3081 35.6675 21.9147 35.4163C22.5213 35.165 23.0725 34.7967 23.5368 34.3324C24.0011 33.8681 24.3694 33.3169 24.6207 32.7103C24.872 32.1037 25.0013 31.4535 25.0013 30.7969V29.1302M30.0013 15.7969C30.0013 20.7969 33.3346 29.1302 33.3346 29.1302H6.66797C6.66797 29.1302 10.0013 22.4635 10.0013 15.7969C10.0013 10.3502 14.5546 5.79688 20.0013 5.79688C25.448 5.79688 30.0013 10.3502 30.0013 15.7969Z" stroke="white" stroke-width="1.5" stroke-linecap="round" stroke-linejoin="round"/>
</svg>
