<svg width="23" height="22" viewBox="0 0 23 22" fill="none" xmlns="http://www.w3.org/2000/svg">
<path d="M19.2827 8.71093C19.2827 10.7195 19.2827 12.7354 19.2827 14.7439C19.2849 14.8611 19.2639 14.9776 19.2208 15.0866C19.1777 15.1956 19.1135 15.295 19.0317 15.3789C18.9661 15.4562 18.925 15.5514 18.9137 15.6522C18.8066 16.4263 18.8066 17.2115 18.9137 17.9856C18.9294 18.0506 18.9597 18.1112 19.0022 18.1628C19.0879 18.2504 19.1549 18.3545 19.1993 18.4687C19.2437 18.5829 19.2645 18.7049 19.2606 18.8274C19.2606 19.0489 19.2606 19.2779 19.2606 19.4994C19.2337 19.7036 19.1335 19.8912 18.9787 20.027C18.8239 20.1629 18.625 20.2378 18.4191 20.2378H6.51371C5.75025 20.2247 5.01307 19.9567 4.41931 19.4763C3.82555 18.996 3.40926 18.331 3.23658 17.5868C3.17548 17.3128 3.14332 17.0332 3.14062 16.7524C3.14062 12.8929 3.14062 9.03337 3.14062 5.17385C3.1468 4.36244 3.44124 3.57968 3.97129 2.9655C4.50135 2.35133 5.23247 1.94579 6.03395 1.82138C6.27799 1.7819 6.52482 1.76215 6.77204 1.76231H18.2863C18.4201 1.74921 18.5551 1.76483 18.6824 1.80812C18.8097 1.85142 18.9263 1.92139 19.0244 2.01337C19.1085 2.09171 19.1755 2.18659 19.2212 2.29206C19.2669 2.39752 19.2904 2.51131 19.2901 2.62627C19.2753 4.64957 19.2827 6.68025 19.2827 8.71093ZM16.847 15.6226H6.56537C6.39473 15.627 6.2272 15.6693 6.07491 15.7464C5.92262 15.8236 5.78937 15.9336 5.68482 16.0686C5.58026 16.2036 5.50702 16.3602 5.47038 16.527C5.43375 16.6938 5.43464 16.8666 5.473 17.033C5.54129 17.3034 5.70185 17.5414 5.92691 17.7059C6.15198 17.8704 6.42741 17.951 6.70561 17.9339H16.847V15.6226ZM11.7763 9.88503H15.607C15.7694 9.88503 15.8284 9.81119 15.8284 9.64873C15.8284 9.48628 15.8284 9.19091 15.8284 8.96199C15.8328 8.93184 15.8305 8.90109 15.8216 8.87194C15.8127 8.84279 15.7975 8.81597 15.777 8.79339C15.7566 8.77081 15.7314 8.75304 15.7033 8.74133C15.6752 8.72963 15.6448 8.72429 15.6144 8.7257H8.00465C7.82013 8.7257 7.7537 8.79954 7.74632 8.98415C7.73894 9.16875 7.74632 9.36074 7.74632 9.55274C7.74632 9.74473 7.79799 9.8998 8.08584 9.8998L11.7763 9.88503ZM11.7763 7.57375H15.511C15.762 7.57375 15.8137 7.51467 15.821 7.27837V6.66548C15.821 6.45133 15.7694 6.39964 15.5627 6.37749H8.01203C7.79799 6.37749 7.74632 6.45133 7.74632 6.66548C7.74632 6.87962 7.74632 7.04208 7.74632 7.22668C7.74632 7.41129 7.80537 7.54421 8.07108 7.54421L11.7763 7.57375Z" fill="#2F7D96"/>
</svg>
