<svg width="48" height="49" viewBox="0 0 48 49" fill="none" xmlns="http://www.w3.org/2000/svg">
<path d="M46.9718 6.42351H41.7527V1.42331C41.7533 1.24245 41.7026 1.06485 41.6058 0.909449C41.509 0.754046 41.3697 0.626674 41.2031 0.540988C41.0365 0.455302 40.8487 0.414523 40.6596 0.422963C40.4706 0.431403 40.2876 0.488826 40.13 0.588987L33.8666 4.58884L33.5394 4.94457C28.5064 2.45213 22.6869 1.82633 17.2003 3.18757C11.7137 4.54881 6.94744 7.80096 3.81807 12.3185C0.688705 16.8361 -0.582748 22.2999 0.248271 27.6594C1.07929 33.019 3.95408 37.8957 8.31976 41.3515L6.31747 47.1057C6.22973 47.3563 6.24927 47.6299 6.37195 47.8668C6.49463 48.1036 6.71044 48.2845 6.97216 48.3698L7.29957 48.4219C7.51879 48.4216 7.73226 48.3554 7.9099 48.2326C8.08753 48.1097 8.2203 47.9366 8.28925 47.7377L10.07 42.6187C13.8675 45.0965 18.3586 46.4219 22.9565 46.4219C27.5544 46.4219 32.0454 45.0965 35.8428 42.6187L37.6236 47.7377C37.6925 47.9366 37.8253 48.1097 38.0029 48.2326C38.1806 48.3554 38.394 48.4216 38.6133 48.4219L38.9407 48.3698C39.2026 48.2848 39.4186 48.104 39.5413 47.867C39.664 47.6301 39.6834 47.3563 39.5954 47.1057L37.5931 41.3515C41.6494 38.1518 44.4291 33.7144 45.4645 28.7858C46.4999 23.8573 45.7278 18.7382 43.2781 14.2898L43.6492 13.9768L47.824 7.97757C47.9293 7.82687 47.9897 7.65158 47.9988 7.47058C48.0079 7.28958 47.9654 7.10963 47.8757 6.94998C47.786 6.79032 47.6526 6.65707 47.4897 6.56433C47.3268 6.47158 47.1407 6.42289 46.9512 6.42351H46.9718ZM39.6609 3.29452V7.01173L34.7636 11.7052L35.4248 6.00107L39.6609 3.29452ZM32.4011 13.9686L29.5281 16.7199C27.6847 15.2475 25.3615 14.4361 22.9592 14.4254C20.5495 14.3938 18.2006 15.1491 16.3009 16.5665C14.4012 17.9839 13.0645 19.9784 12.5116 22.2205C11.9587 24.4626 12.2229 26.8179 13.2603 28.897C14.2978 30.9761 16.0465 32.6544 18.2173 33.6548C20.3881 34.6551 22.8511 34.9174 25.1991 34.3983C27.547 33.8792 29.6393 32.6099 31.1301 30.8C32.6209 28.9902 33.4209 26.7482 33.3979 24.4448C33.3749 22.1414 32.5301 19.9144 31.0033 18.1322L33.8765 15.3808L34.074 15.3609C36.521 18.1149 37.7582 21.6671 37.5265 25.2735C37.2948 28.8799 35.6122 32.2607 32.8311 34.7078C30.05 37.155 26.3862 38.4786 22.607 38.4016C18.8277 38.3246 15.2262 36.8528 12.5568 34.2945C9.88736 31.7363 8.35708 28.29 8.28646 24.6775C8.21584 21.065 9.61039 17.5665 12.1779 14.9147C14.7455 12.2629 18.287 10.6634 22.0606 10.4515C25.8342 10.2396 29.5471 11.4316 32.4219 13.7777L32.4011 13.9686ZM25.052 24.4267C25.0512 24.8211 24.928 25.2065 24.6981 25.5341C24.4682 25.8617 24.1419 26.1167 23.7604 26.2671C23.3789 26.4175 22.9594 26.4563 22.5548 26.3789C22.1501 26.3014 21.7785 26.1111 21.487 25.8319C21.1955 25.5527 20.9971 25.1972 20.9169 24.8103C20.8367 24.4234 20.8784 24.0224 21.0365 23.6581C21.1946 23.2937 21.4622 22.9823 21.8054 22.7633C22.1485 22.5442 22.5519 22.4273 22.9646 22.4273L23.473 22.5253L22.2269 23.7196C22.1242 23.8109 22.0418 23.9211 21.9845 24.0436C21.9273 24.166 21.8964 24.2982 21.8938 24.4323C21.8912 24.5664 21.9168 24.6997 21.9692 24.8242C22.0216 24.9486 22.0996 25.0616 22.1987 25.1566C22.2978 25.2516 22.4158 25.3266 22.5458 25.377C22.6759 25.4274 22.8152 25.4523 22.9556 25.4502C23.0959 25.4481 23.2343 25.419 23.3626 25.3646C23.4909 25.3103 23.6064 25.2318 23.7023 25.1338L24.9484 23.9396L25.052 24.4267ZM25.0728 20.9942C24.4364 20.6268 23.708 20.4308 22.9646 20.4268C22.029 20.4152 21.1158 20.7005 20.3678 21.2379C19.6199 21.7753 19.0793 22.5345 18.831 23.3968C18.5826 24.2591 18.6403 25.1757 18.9951 26.0033C19.3498 26.8309 19.9817 27.5227 20.7917 27.9705C21.6017 28.4183 22.544 28.5969 23.4714 28.4781C24.3989 28.3594 25.2589 27.9501 25.917 27.3143C26.5751 26.6785 26.9943 25.8521 27.1086 24.9645C27.223 24.0768 27.0263 23.1778 26.5492 22.4084L29.5346 19.5476C30.8496 21.1684 31.4688 23.2073 31.2659 25.2492C31.063 27.291 30.0533 29.1822 28.4425 30.5374C26.8318 31.8925 24.7411 32.6098 22.5964 32.543C20.4518 32.4763 18.4144 31.6305 16.8993 30.1781C15.3842 28.7256 14.5055 26.7758 14.442 24.7256C14.3785 22.6755 15.135 20.6792 16.5575 19.1436C17.98 17.608 19.9615 16.6485 22.0983 16.4606C24.2351 16.2727 26.3664 16.8705 28.0582 18.1322L25.0728 20.9942ZM22.9646 44.4283C19.7586 44.4396 16.5927 43.7467 13.7114 42.4029C10.83 41.059 8.31017 39.1002 6.34651 36.6778C4.38285 34.2554 3.02783 31.4341 2.38602 28.4316C1.74422 25.4292 1.83283 22.3259 2.64497 19.3614C3.4571 16.3969 4.971 13.6504 7.06993 11.334C9.16886 9.01749 11.7966 7.19309 14.7503 6.00145C17.7041 4.80981 20.9049 4.28284 24.1055 4.46127C27.3061 4.6397 30.421 5.51878 33.2098 7.03057L32.6969 11.4507C29.868 9.4861 26.4614 8.42745 22.9646 8.42611C19.1947 8.40859 15.5284 9.60473 12.5565 11.8218C9.5846 14.039 7.48025 17.1478 6.58241 20.6476C5.68457 24.1474 6.04553 27.8341 7.60726 31.1139C9.16899 34.3936 11.8405 37.0752 15.1912 38.7267C18.542 40.3781 22.3768 40.9031 26.0778 40.2172C29.7788 39.5312 33.1305 37.6743 35.5927 34.9455C38.0548 32.2168 39.4841 28.7751 39.6502 25.1752C39.8164 21.5752 38.7097 18.0266 36.5084 15.1012L41.1209 14.611C42.923 17.6472 43.8606 21.0821 43.8404 24.5728C43.8201 28.0636 42.8428 31.4882 41.0056 34.5051C39.1684 37.5221 36.5356 40.0258 33.3701 41.7667C30.2045 43.5075 26.6167 44.4245 22.9646 44.4262V44.4283ZM42.1989 12.4844L36.2444 13.1185L41.1416 8.42497H45.0219L42.1989 12.4844Z" fill="#115175"/>
</svg>
