<svg width="30" height="28" viewBox="0 0 30 28" fill="none" xmlns="http://www.w3.org/2000/svg">
<g opacity="0.64">
<path d="M16.8115 7H9.06185C8.74702 7 8.4443 7.01167 8.15369 7.04667C4.89641 7.315 3.26172 9.17 3.26172 12.5883V17.255C3.26172 21.9217 5.19913 22.8433 9.06185 22.8433H9.54621C9.8126 22.8433 10.1638 23.0183 10.3212 23.2167L11.7742 25.0833C12.416 25.9117 13.4574 25.9117 14.0991 25.0833L15.5522 23.2167C15.7338 22.9833 16.0244 22.8433 16.3272 22.8433H16.8115C20.3594 22.8433 22.2847 21.28 22.5632 18.13C22.5995 17.85 22.6116 17.5583 22.6116 17.255V12.5883C22.6116 8.86667 20.6742 7 16.8115 7ZM8.7107 16.3333C8.0326 16.3333 7.49981 15.8083 7.49981 15.1667C7.49981 14.525 8.04471 14 8.7107 14C9.37668 14 9.92158 14.525 9.92158 15.1667C9.92158 15.8083 9.37668 16.3333 8.7107 16.3333ZM12.9367 16.3333C12.2586 16.3333 11.7258 15.8083 11.7258 15.1667C11.7258 14.525 12.2707 14 12.9367 14C13.6027 14 14.1476 14.525 14.1476 15.1667C14.1476 15.8083 13.6148 16.3333 12.9367 16.3333ZM17.1748 16.3333C16.4967 16.3333 15.9639 15.8083 15.9639 15.1667C15.9639 14.525 16.5088 14 17.1748 14C17.8408 14 18.3857 14.525 18.3857 15.1667C18.3857 15.8083 17.8408 16.3333 17.1748 16.3333Z" fill="white"/>
<path d="M27.4559 7.92427V12.5909C27.4559 14.9243 26.7051 16.5109 25.2036 17.3859C24.8404 17.5959 24.4166 17.3159 24.4166 16.9076L24.4287 12.5909C24.4287 7.92427 21.6557 5.2526 16.8122 5.2526L9.43793 5.26427C9.01412 5.26427 8.7235 4.85594 8.94146 4.50594C9.84963 3.05927 11.4964 2.33594 13.9061 2.33594H21.6557C25.5185 2.33594 27.4559 4.2026 27.4559 7.92427Z" fill="white"/>
</g>
</svg>
