<svg width="23" height="22" viewBox="0 0 23 22" fill="none" xmlns="http://www.w3.org/2000/svg">
<path d="M7.75987 16.0642H7.56275C6.52789 16.0642 5.49303 16.0642 4.45816 16.0642C3.97622 16.0602 3.50869 15.8992 3.12635 15.6057C2.744 15.3121 2.46766 14.902 2.33916 14.4373C2.29698 14.2592 2.27106 14.0777 2.26172 13.895L2.26172 3.94347C2.26835 3.37853 2.49087 2.83756 2.8836 2.43157C3.27634 2.02557 3.8095 1.78535 4.37368 1.7602H4.8524H17.5242C18.0268 1.73701 18.5226 1.88334 18.9322 2.17573C19.2245 2.38369 19.4619 2.65971 19.6238 2.97996C19.7857 3.30021 19.8673 3.65507 19.8614 4.0139C19.8614 7.28881 19.8614 10.5708 19.8614 13.8738C19.8633 14.1663 19.807 14.4562 19.6958 14.7267C19.5846 14.9971 19.4207 15.2428 19.2136 15.4492C19.0066 15.6557 18.7605 15.8189 18.4898 15.9293C18.2191 16.0397 17.9292 16.0951 17.6368 16.0923C16.0529 16.0923 14.4759 16.0923 12.8919 16.0923C12.774 16.0899 12.6591 16.1299 12.5681 16.205L8.48498 19.2757C8.42191 19.3328 8.34308 19.3695 8.25882 19.381C8.17455 19.3925 8.08877 19.3783 8.0127 19.3403C7.93663 19.3022 7.87381 19.2421 7.83247 19.1677C7.79112 19.0934 7.77318 19.0083 7.78099 18.9235V16.1064L7.75987 16.0642Z" fill="#2F7D96"/>
</svg>
