<svg width="40" height="41" viewBox="0 0 40 41" fill="none" xmlns="http://www.w3.org/2000/svg">
<path d="M13.6 4.79688C11.4004 4.79688 9.6 6.59726 9.6 8.79688V10.3969H8C5.80039 10.3969 4 12.1973 4 14.3969V32.7969C4 34.9965 5.80039 36.7969 8 36.7969H26.4C28.5996 36.7969 30.4 34.9965 30.4 32.7969V31.1969H32C34.1996 31.1969 36 29.3965 36 27.1969V8.79688C36 6.59726 34.1996 4.79688 32 4.79688H13.6ZM13.6 6.39688H32C33.3348 6.39688 34.4 7.46209 34.4 8.79688V27.1969C34.4 28.5317 33.3348 29.5969 32 29.5969H30.4H28.8H13.6C12.2652 29.5969 11.2 28.5317 11.2 27.1969V19.1969C11.2 18.3035 11.9067 17.5969 12.8 17.5969H15.2V22.3969C15.2 24.1547 16.6421 25.5969 18.4 25.5969H23.2H24.8H27.2C28.9579 25.5969 30.4 24.1547 30.4 22.3969V14.3969C30.4 12.1973 28.5996 10.3969 26.4 10.3969H11.2V8.79688C11.2 7.46209 12.2652 6.39688 13.6 6.39688ZM8 11.9969H9.6H11.2H26.4C27.7348 11.9969 28.8 13.0621 28.8 14.3969V22.3969C28.8 23.2902 28.0933 23.9969 27.2 23.9969H24.8V19.1969C24.8 17.439 23.3579 15.9969 21.6 15.9969H16.8H15.2H12.8C11.0421 15.9969 9.6 17.439 9.6 19.1969V27.1969C9.6 29.3965 11.4004 31.1969 13.6 31.1969H28.8V32.7969C28.8 34.1317 27.7348 35.1969 26.4 35.1969H8C6.66521 35.1969 5.6 34.1317 5.6 32.7969V14.3969C5.6 13.0621 6.66521 11.9969 8 11.9969ZM16.8 17.5969H21.6C22.4933 17.5969 23.2 18.3035 23.2 19.1969V23.9969H18.4C17.5067 23.9969 16.8 23.2902 16.8 22.3969V17.5969Z" fill="white"/>
</svg>
