<svg width="25" height="26" viewBox="0 0 25 26" fill="none" xmlns="http://www.w3.org/2000/svg">
<path d="M22.9963 12.2922C22.9963 13.7863 22.9963 15.2804 22.9963 16.7827C23.0211 17.1858 22.9201 17.5866 22.7072 17.9297C22.4943 18.2727 22.1801 18.5412 21.808 18.6978C19.0022 20.0846 16.1964 21.4879 13.3824 22.9077C13.1041 23.0602 12.7919 23.1401 12.4746 23.1401C12.1573 23.1401 11.8451 23.0602 11.5669 22.9077L3.08347 18.6566C2.7468 18.5094 2.46298 18.263 2.26984 17.9504C2.0767 17.6377 1.98341 17.2736 2.00242 16.9066V7.7851C1.98575 7.34764 2.1132 6.91681 2.36518 6.55887C2.61715 6.20094 2.9797 5.9357 3.39706 5.80396L9.85863 3.32755L11.7484 2.64241C12.2282 2.45253 12.7623 2.45253 13.2421 2.64241L21.6347 5.80396C22.0458 5.94428 22.4005 6.21382 22.6459 6.57236C22.8913 6.9309 23.0143 7.3592 22.9963 7.79335V12.2922ZM20.4299 8.16481L20.1988 8.06576L12.7304 5.24264C12.6073 5.20112 12.474 5.20112 12.3508 5.24264C9.98242 6.10113 7.65526 6.97613 5.30335 7.85113L4.54414 8.14005L4.7752 8.28038L12.3591 11.3594C12.4497 11.3922 12.549 11.3922 12.6397 11.3594L20.2153 8.28038L20.4299 8.16481ZM13.828 19.7709L13.9765 19.7132C16.0561 18.6621 18.1412 17.6192 20.2318 16.5846C20.281 16.5664 20.3225 16.5319 20.3495 16.4869C20.3765 16.4419 20.3874 16.389 20.3803 16.337C20.3803 14.6283 20.3803 12.9278 20.3803 11.2191C20.3843 11.1531 20.3843 11.0869 20.3803 11.0209H20.2648L13.9765 13.6129C13.928 13.6314 13.8873 13.6662 13.8617 13.7114C13.8361 13.7566 13.8271 13.8094 13.8363 13.8606V19.5481C13.8115 19.6224 13.8197 19.6801 13.8197 19.7544L13.828 19.7709Z" fill="#161616"/>
</svg>
