<svg width="48" height="48" viewBox="0 0 48 48" fill="none" xmlns="http://www.w3.org/2000/svg">
<path d="M17.4839 21.0321C15.3766 21.0321 13.3099 21.6119 11.5102 22.7081C9.71039 23.8043 8.24696 25.3746 7.28009 27.247C6.31322 29.1194 5.88021 31.2218 6.02845 33.3239C6.1767 35.426 6.90047 37.4468 8.12055 39.1649C9.34063 40.8831 11.01 42.2325 12.9458 43.0653C14.8815 43.898 17.0091 44.1821 19.0956 43.8863C21.1821 43.5906 23.1469 42.7265 24.775 41.3885C26.4032 40.0506 27.6317 38.2905 28.3263 36.3009C29.1017 36.3333 29.8079 36.3425 30.3895 36.3425C33.9159 36.3425 42.1181 35.9686 42.1181 32.5114C42.1118 32.4935 42.1118 32.4739 42.1181 32.456V27.8403C42.1382 27.7368 42.149 27.6318 42.1504 27.5264C42.1492 27.4256 42.1384 27.3251 42.1181 27.2264V23.4461C42.1385 23.3411 42.1492 23.2345 42.1504 23.1276C42.149 23.0284 42.1382 22.9294 42.1181 22.8322V18.6042C42.1382 18.5008 42.149 18.3957 42.1504 18.2903C42.149 18.1136 42.1162 17.9386 42.0535 17.7734C42.0929 17.6225 42.1146 17.4676 42.1181 17.3118C42.12 17.3011 42.12 17.2902 42.1181 17.2795C42.1199 17.2719 42.1199 17.264 42.1181 17.2564V12.6407C42.1382 12.5372 42.149 12.4322 42.1504 12.3268C42.1492 12.226 42.1384 12.1255 42.1181 12.0268V7.80336C42.1382 7.69836 42.149 7.5918 42.1504 7.48489C42.1423 7.21477 42.0734 6.94996 41.9487 6.7102C41.824 6.47044 41.6468 6.26191 41.4304 6.10017C39.0348 4.06924 31.405 4 30.3895 4C29.374 4 21.7442 4.06924 19.3487 6.10017C19.0472 6.29356 18.8271 6.59082 18.7301 6.93562C18.6637 7.10634 18.6293 7.28785 18.6286 7.47104C18.6292 7.57824 18.6416 7.68503 18.6655 7.78952V12.0129C18.6413 12.1111 18.6289 12.2118 18.6286 12.3129C18.6292 12.4186 18.6416 12.5239 18.6655 12.6268V17.2979C18.6675 17.4536 18.6877 17.6085 18.7255 17.7595C18.6628 17.9247 18.63 18.0998 18.6286 18.2765C18.6292 18.3821 18.6416 18.4874 18.6655 18.5904V21.0921C18.273 21.0511 17.8786 21.0311 17.4839 21.0321ZM40.7795 32.4191C40.7773 32.4468 40.7773 32.4745 40.7795 32.5022V32.5391C40.7149 33.8269 36.0807 34.8701 30.3941 34.8701C29.831 34.8701 29.2771 34.8701 28.7371 34.8377C28.8919 34.0782 28.9708 33.3051 28.9725 32.5299C28.9725 32.3268 28.9725 32.1237 28.9725 31.9252C29.4986 31.9252 29.9879 31.9252 30.408 31.9252C33.0528 31.9252 38.324 31.7175 40.798 30.1574L40.7795 32.4191ZM40.7795 28.0111C40.7772 28.0387 40.7772 28.0665 40.7795 28.0942V28.1311C40.7149 29.4189 36.0807 30.462 30.3941 30.462C29.8448 30.462 29.3094 30.462 28.7786 30.4297C28.5606 29.2318 28.1507 28.0768 27.5647 27.0095C28.6401 27.0741 29.6279 27.0925 30.3941 27.0925C33.0389 27.0925 38.3101 26.8802 40.7841 25.3201L40.7795 28.0111ZM40.7795 17.1918C40.7773 17.2194 40.7773 17.2472 40.7795 17.2749V17.3118C40.7149 18.5996 36.0807 19.6427 30.3941 19.6427C24.7075 19.6427 20.0733 18.5996 20.0087 17.3118V14.5008C22.4827 16.0655 27.7539 16.2732 30.3987 16.2732C33.0435 16.2732 38.3147 16.0655 40.7888 14.5008L40.7795 17.1918ZM30.3895 5.68014C36.2884 5.68014 39.9394 6.77405 40.5441 7.45718C39.9256 8.14031 36.2746 9.23425 30.3895 9.23425C24.5044 9.23425 20.8395 8.14031 20.2349 7.45718C20.8211 6.77405 24.5137 5.68014 30.3895 5.68014ZM30.3895 10.9282C31.3126 10.9282 37.8808 10.8682 40.7795 9.26656V12.3683C40.7775 12.396 40.7775 12.4238 40.7795 12.4514V12.493C40.7149 13.7761 36.0807 14.8008 30.3941 14.8008C24.7075 14.8008 20.0733 13.7577 20.0087 12.493V9.28963C22.8935 10.8682 29.4571 10.9282 30.3895 10.9282ZM30.3895 21.7475C31.3126 21.7475 37.8808 21.6875 40.7795 20.0859V23.1692C40.7773 23.1968 40.7773 23.2246 40.7795 23.2522V23.2892C40.7149 24.577 36.0807 25.597 30.3941 25.597C29.0094 25.597 27.7262 25.537 26.5354 25.4263C24.903 23.3292 22.5954 21.8614 20.0041 21.2721V20.0443C22.8935 21.6875 29.4571 21.7475 30.3895 21.7475ZM27.4954 32.516C27.4991 34.4969 26.915 36.4344 25.8172 38.0832C24.7193 39.732 23.157 41.0181 21.3279 41.7786C19.4989 42.5392 17.4853 42.7401 15.5421 42.3559C13.5988 41.9717 11.8132 41.0197 10.4112 39.6203C9.00925 38.2209 8.0539 36.437 7.66611 34.4945C7.27831 32.5519 7.47547 30.538 8.23268 28.7075C8.98988 26.8771 10.2731 25.3124 11.9199 24.2115C13.5666 23.1106 15.503 22.523 17.4839 22.523C20.1352 22.5254 22.6775 23.5784 24.5539 25.4514C26.4304 27.3244 27.4881 29.8648 27.4954 32.516Z" fill="#E45D61"/>
<path d="M9.74219 32.514C9.74219 34.0452 10.1963 35.5419 11.047 36.815C11.8978 38.088 13.107 39.0801 14.5217 39.6658C15.9363 40.2516 17.4929 40.4046 18.9946 40.1056C20.4962 39.8065 21.8755 39.0688 22.9578 37.9858C24.0402 36.9028 24.7771 35.5231 25.0752 34.0213C25.3734 32.5195 25.2194 30.963 24.6328 29.5486C24.0462 28.1343 23.0534 26.9257 21.7799 26.0757C20.5063 25.2257 19.0093 24.7725 17.4782 24.7734C15.4264 24.7759 13.4594 25.5923 12.0091 27.0436C10.5587 28.4948 9.74341 30.4623 9.74219 32.514ZM24.2356 32.514C24.2347 33.8505 23.8375 35.1567 23.0942 36.2675C22.3509 37.3782 21.295 38.2436 20.0599 38.7542C18.8248 39.2648 17.466 39.3977 16.1553 39.1361C14.8447 38.8745 13.6411 38.2301 12.6967 37.2844C11.7523 36.3387 11.1095 35.1342 10.8497 33.8232C10.5898 32.5122 10.7246 31.1536 11.2369 29.9192C11.7492 28.6848 12.616 27.63 13.7278 26.8882C14.8395 26.1465 16.1463 25.7511 17.4828 25.752C19.275 25.7544 20.9931 26.4678 22.26 27.7355C23.5268 29.0032 24.239 30.7218 24.2402 32.514H24.2356Z" fill="#E45D61"/>
<path d="M16.5376 27.6343V28.4605C16.1472 28.6052 15.7951 28.8373 15.5083 29.139C15.1852 29.4964 14.9704 29.9382 14.8887 30.413C14.8069 30.8877 14.8618 31.3759 15.0467 31.8208C15.2436 32.2467 15.5532 32.6106 15.9422 32.8731C16.3321 33.1388 16.7539 33.3544 17.1976 33.5147C17.4497 33.6006 17.6832 33.7338 17.8854 33.9071C17.9194 33.9406 17.9475 33.9796 17.9685 34.0225C17.9842 34.0621 17.992 34.1045 17.9915 34.1471C17.9928 34.1876 17.9847 34.2278 17.9679 34.2646C17.9511 34.3014 17.926 34.3339 17.8946 34.3594C17.7581 34.4504 17.597 34.4971 17.433 34.4933C17.0054 34.5003 16.5861 34.3745 16.2329 34.1333L15.9422 33.944C15.8804 33.9027 15.8102 33.8759 15.7367 33.8655C15.6632 33.8551 15.5883 33.8614 15.5175 33.884C15.4473 33.9085 15.3832 33.9481 15.3298 33.9999C15.2764 34.0517 15.2349 34.1146 15.2083 34.184L14.7467 35.4626C14.7115 35.5628 14.7095 35.6718 14.7411 35.7732C14.7727 35.8746 14.8361 35.9632 14.9221 36.0257L15.0929 36.1457C15.3956 36.3538 15.731 36.5098 16.0852 36.6073C16.2191 36.6442 16.3576 36.6765 16.496 36.7042V37.4335C16.4973 37.5629 16.5492 37.6866 16.6407 37.7781C16.7322 37.8696 16.8559 37.9216 16.9853 37.9228H18.2408C18.3705 37.9228 18.495 37.8712 18.5868 37.7795C18.6785 37.6877 18.73 37.5633 18.73 37.4335V36.5704C19.1693 36.4097 19.5613 36.1415 19.8702 35.7903C20.2855 35.3149 20.5135 34.7045 20.5117 34.0732C20.5137 33.7591 20.4622 33.4469 20.3594 33.1501C20.1987 32.7089 19.9191 32.3208 19.5517 32.0285C19.1782 31.7344 18.7628 31.4979 18.3193 31.3269H18.2685C17.9731 31.2206 17.6936 31.0746 17.4376 30.893C17.4126 30.8729 17.3922 30.8477 17.3776 30.8192C17.3776 30.8192 17.3776 30.7961 17.3776 30.7545C17.3777 30.7152 17.3925 30.6773 17.4192 30.6484C17.5336 30.5686 17.6728 30.5325 17.8115 30.5468C18.0326 30.5449 18.2524 30.5792 18.4624 30.6484C18.5967 30.6967 18.7264 30.7569 18.8501 30.8284L19.127 30.9899C19.1892 31.0242 19.2578 31.0452 19.3285 31.0516C19.3993 31.0579 19.4705 31.0495 19.5378 31.0269C19.604 31.0016 19.6642 30.9626 19.7143 30.9125C19.7644 30.8624 19.8033 30.8023 19.8286 30.7361L20.2902 29.4806C20.3309 29.3723 20.332 29.253 20.2931 29.144C20.2542 29.035 20.178 28.9433 20.0779 28.8852L19.8794 28.7651C19.5403 28.5715 19.1726 28.4328 18.7901 28.3544V27.6666C18.7907 27.602 18.7785 27.5378 18.7542 27.4779C18.7298 27.418 18.6939 27.3636 18.6484 27.3176C18.6029 27.2717 18.5488 27.2353 18.4891 27.2104C18.4295 27.1855 18.3654 27.1727 18.3008 27.1727H17.0592C16.9289 27.1651 16.8009 27.2094 16.7032 27.2959C16.6054 27.3824 16.5459 27.504 16.5376 27.6343ZM17.5207 28.8205V28.1236H17.7838V28.7421C17.7836 28.8672 17.8314 28.9876 17.9172 29.0786C18.0031 29.1696 18.1205 29.2243 18.2454 29.2313C18.5803 29.2598 18.9072 29.3489 19.2101 29.4944L19.0855 29.8268C18.9745 29.7738 18.8604 29.7276 18.7439 29.6883C18.4328 29.5851 18.1069 29.5336 17.7792 29.536C17.5845 29.525 17.3896 29.5528 17.2058 29.6178C17.022 29.6828 16.8529 29.7836 16.7084 29.9145C16.6009 30.0196 16.5157 30.1454 16.4578 30.2841C16.4 30.4229 16.3706 30.5719 16.3714 30.7222C16.3677 30.8889 16.4008 31.0544 16.4684 31.2069C16.5417 31.356 16.6455 31.488 16.773 31.5946C17.1136 31.8575 17.4937 32.0647 17.8992 32.2085C18.2608 32.3431 18.6 32.5314 18.9054 32.767C19.1356 32.9482 19.3113 33.1894 19.4132 33.464C19.4808 33.6583 19.5136 33.8629 19.5101 34.0686C19.5107 34.4639 19.3681 34.846 19.1085 35.1441C18.8413 35.4382 18.49 35.6429 18.1023 35.7303C17.9956 35.7509 17.8997 35.8085 17.8313 35.8929C17.7629 35.9774 17.7265 36.0832 17.7284 36.1919V36.9212H17.4561V36.2611C17.4552 36.1363 17.4071 36.0165 17.3215 35.9258C17.2359 35.835 17.1191 35.78 16.9946 35.7718C16.7677 35.754 16.5434 35.7122 16.3253 35.6472C16.1245 35.6011 15.9295 35.533 15.7437 35.4441L15.8637 35.1026C16.3267 35.3458 16.8408 35.4755 17.3638 35.481C17.7711 35.501 18.1717 35.3713 18.49 35.1164C18.6951 34.9395 18.8387 34.702 18.9001 34.4382C18.9615 34.1744 18.9375 33.8979 18.8316 33.6486C18.7646 33.4912 18.6674 33.3485 18.5454 33.2286C18.2483 32.9575 17.8999 32.7488 17.5207 32.6147C17.1512 32.4809 16.7994 32.3026 16.473 32.0839C16.2296 31.9222 16.0349 31.6972 15.9098 31.433C15.8334 31.2537 15.7956 31.0602 15.7991 30.8653C15.7948 30.4782 15.9403 30.1044 16.2053 29.8222C16.4547 29.5627 16.7763 29.3842 17.1284 29.3098C17.2399 29.2855 17.3397 29.2236 17.4111 29.1346C17.4825 29.0455 17.5212 28.9347 17.5207 28.8205Z" fill="#E45D61"/>
</svg>
