<svg width="23" height="22" viewBox="0 0 23 22" fill="none" xmlns="http://www.w3.org/2000/svg">
<path d="M11.2304 8.69127C10.5575 8.69127 9.88464 8.65431 9.21177 8.60257C7.66664 8.51027 6.14631 8.17087 4.7087 7.59729C4.21412 7.41714 3.77026 7.12048 3.41471 6.73246C3.23989 6.52612 3.14538 6.26367 3.14852 5.99328C3.14852 5.54239 3.14852 5.0841 3.14852 4.6332C3.12899 4.37327 3.18145 4.11298 3.30014 3.88089C3.41884 3.64879 3.59918 3.45386 3.82139 3.31747C4.41195 2.94371 5.05847 2.66672 5.73649 2.49699C6.6705 2.19147 7.63494 1.98824 8.61284 1.89086C9.38923 1.83173 10.173 1.75781 10.9494 1.75781C11.6149 1.75781 12.2878 1.75781 12.9532 1.75781C14.6097 1.8274 16.2423 2.17731 17.7817 2.79266C18.2269 2.95534 18.6345 3.20683 18.9795 3.53183C19.095 3.645 19.1856 3.78104 19.2455 3.93124C19.3053 4.08145 19.3331 4.24249 19.327 4.40406C19.327 4.89191 19.327 5.37238 19.327 5.88241C19.3331 6.08402 19.2914 6.28422 19.2053 6.46664C19.1192 6.64906 18.9912 6.80854 18.8316 6.93204C18.401 7.26142 17.9153 7.5117 17.3972 7.67121C16.4103 8.03182 15.3859 8.27978 14.3433 8.41039C13.3123 8.56663 12.2728 8.66043 11.2304 8.69127Z" fill="#2F7D96"/>
<path d="M3.14135 8.10938C3.69359 8.47784 4.28975 8.77582 4.91596 8.99638C5.70941 9.27992 6.52936 9.48298 7.36345 9.60251C8.37254 9.77632 9.39345 9.87269 10.4173 9.89079C11.1567 9.89079 11.8961 9.89079 12.6355 9.89079C13.8812 9.85398 15.12 9.69052 16.3326 9.40293C17.3547 9.16234 18.3294 8.75261 19.2164 8.19068L19.3273 8.12416V8.30895C19.3273 9.42511 19.3273 10.5265 19.3273 11.65C19.3374 11.882 19.2876 12.1126 19.1827 12.3197C19.0778 12.5269 18.9213 12.7035 18.7283 12.8327C18.2177 13.1964 17.6506 13.4736 17.0499 13.6532C16.1903 13.9337 15.3066 14.1341 14.4101 14.2519C13.5632 14.3786 12.7081 14.4429 11.8517 14.4441C10.9201 14.4441 9.98839 14.4441 9.05672 14.3628C7.55733 14.279 6.08265 13.9441 4.69414 13.3723C4.28712 13.2129 3.91159 12.9827 3.58501 12.6923C3.4403 12.5704 3.32518 12.4172 3.24833 12.2443C3.17147 12.0715 3.1349 11.8834 3.14135 11.6944C3.14135 10.5708 3.14135 9.47685 3.14135 8.30895V8.10938Z" fill="#2F7D96"/>
<path d="M3.14134 13.8894C4.41144 14.6766 5.83639 15.1808 7.31907 15.3677C8.20445 15.5119 9.09891 15.5934 9.99577 15.6116C10.7352 15.6116 11.5116 15.656 12.2658 15.6116C13.9289 15.5955 15.5815 15.3467 17.1755 14.8725C17.9037 14.6508 18.5979 14.33 19.2385 13.9189L19.3199 13.8672V14.052C19.3199 15.1829 19.3199 16.3212 19.3199 17.4522C19.3224 17.6478 19.2812 17.8416 19.1993 18.0193C19.1175 18.1971 18.997 18.3543 18.8466 18.4796C18.4368 18.8073 17.9708 19.0577 17.4713 19.2188C16.4417 19.5894 15.3721 19.8375 14.2844 19.958C13.0198 20.1543 11.7414 20.2482 10.4616 20.2389C8.6754 20.2264 6.90283 19.9269 5.21172 19.3519C4.63256 19.1757 4.09279 18.8896 3.62197 18.5092C3.46588 18.3819 3.3413 18.2203 3.25794 18.0369C3.17457 17.8536 3.13467 17.6535 3.14134 17.4522C3.14134 16.3286 3.14134 15.2347 3.14134 14.0815V13.8894Z" fill="#2F7D96"/>
</svg>
