<svg width="25" height="26" viewBox="0 0 25 26" fill="none" xmlns="http://www.w3.org/2000/svg">
<path d="M12.2424 2.50013C12.6798 2.51674 13.1054 2.64703 13.4771 2.87817L18.6009 6.00326L20.2137 6.98615C20.5665 7.19617 20.5665 7.4566 20.2137 7.66662C17.6098 9.22916 15.0059 10.7973 12.402 12.3711C12.339 12.4144 12.2643 12.4376 12.1878 12.4376C12.1113 12.4376 12.0366 12.4144 11.9736 12.3711C9.3529 10.7805 6.73781 9.20676 4.12831 7.64981C4.06205 7.62555 4.00485 7.58151 3.96443 7.52367C3.92402 7.46582 3.90234 7.39695 3.90234 7.32638C3.90234 7.25581 3.92402 7.18695 3.96443 7.1291C4.00485 7.07125 4.06205 7.02722 4.12831 7.00295L10.89 2.89497C11.2919 2.63255 11.7625 2.49515 12.2424 2.50013Z" fill="#161616"/>
<path d="M11.5195 18.2734V22.6586C11.5199 22.7781 11.5029 22.8969 11.4691 23.0115C11.4426 23.1019 11.3963 23.1854 11.3337 23.2558C11.271 23.3263 11.1935 23.382 11.1068 23.4189C11.0201 23.4559 10.9262 23.4732 10.832 23.4695C10.7378 23.4659 10.6456 23.4414 10.562 23.3979L7.34491 21.4489C6.36215 20.8273 5.32059 20.2056 4.29583 19.5923C3.88715 19.3652 3.54972 19.0288 3.32127 18.6208C3.09283 18.2128 2.98238 17.7493 3.00229 17.2821V9.21737C2.99616 9.1545 3.00883 9.09121 3.03868 9.03554C3.06854 8.97986 3.11424 8.9343 3.17 8.90462C3.22576 8.87494 3.28907 8.86247 3.35192 8.86879C3.41477 8.87512 3.47433 8.89995 3.52306 8.94015L11.4019 13.5438C11.4501 13.5689 11.4896 13.608 11.5151 13.656C11.5405 13.704 11.5509 13.7586 11.5447 13.8126L11.5195 18.2734Z" fill="#161616"/>
<path d="M12.8386 18.3068C12.8386 16.8199 12.8386 15.3245 12.8386 13.8292C12.833 13.7645 12.8468 13.6996 12.8782 13.6428C12.9096 13.5859 12.9572 13.5397 13.0149 13.51L20.8098 8.90632C21.0954 8.72991 21.3306 8.90632 21.3306 9.20035C21.3306 11.939 21.3306 14.6777 21.3306 17.4163C21.3358 17.8492 21.2247 18.2755 21.009 18.6508C20.7933 19.0262 20.4808 19.3367 20.1043 19.5501L17.24 21.3059L13.8801 23.3557C13.7831 23.4336 13.6654 23.4815 13.5416 23.4934C13.4177 23.5054 13.293 23.4809 13.1829 23.4229C13.0676 23.3589 12.973 23.2632 12.9105 23.147C12.8479 23.0308 12.82 22.8992 12.8302 22.7676C12.8386 21.2807 12.8386 19.7937 12.8386 18.3068Z" fill="#161616"/>
</svg>
