<svg width="48" height="48" viewBox="0 0 48 48" fill="none" xmlns="http://www.w3.org/2000/svg">
<path opacity="0.15" d="M25.668 21.4974C25.668 24.7191 28.2796 27.3307 31.5013 27.3307L37.3346 33.1641V21.4974C37.3346 18.2757 34.723 15.6641 31.5013 15.6641C28.2796 15.6641 25.668 18.2757 25.668 21.4974Z" fill="#115175"/>
<path d="M25.6667 21.4974C25.6667 24.7191 28.2783 27.3307 31.5 27.3307L37.3333 33.1641V21.4974C37.3333 18.2757 34.7217 15.6641 31.5 15.6641C28.2783 15.6641 25.6667 18.2757 25.6667 21.4974Z" stroke="#115175" stroke-width="1.5" stroke-linejoin="round"/>
<path d="M9 21.4974C9 24.7191 11.6117 27.3307 14.8333 27.3307L20.6667 33.1641V21.4974C20.6667 18.2757 18.055 15.6641 14.8333 15.6641C11.6117 15.6641 9 18.2757 9 21.4974Z" stroke="#115175" stroke-width="1.5" stroke-linejoin="round"/>
</svg>
