<svg width="23" height="22" viewBox="0 0 23 22" fill="none" xmlns="http://www.w3.org/2000/svg">
<path d="M19.6571 8.90625L19.5248 9.97746H20.1863C20.2585 9.97226 20.3309 9.98245 20.3989 10.0074C20.4668 10.0323 20.5287 10.0713 20.5804 10.122C20.6322 10.1726 20.6726 10.2336 20.699 10.3011C20.7254 10.3685 20.7371 10.4407 20.7336 10.5131C20.7336 10.8681 20.7336 11.2292 20.7336 11.5903C20.7362 11.6608 20.7241 11.7311 20.698 11.7966C20.6718 11.8621 20.6323 11.9214 20.5819 11.9708C20.5315 12.0201 20.4713 12.0583 20.4052 12.0829C20.3392 12.1076 20.2687 12.1181 20.1983 12.1139H19.2963H19.2542L19.1099 13.2753C19.0317 13.8771 18.9596 14.4789 18.8874 15.0446C18.8152 15.6103 18.731 16.2061 18.6709 16.7899C18.6288 17.2111 18.6108 17.6384 18.5807 18.0657C18.5729 18.1998 18.5134 18.3256 18.4146 18.4166C18.3159 18.5075 18.1857 18.5565 18.0515 18.5532C17.6907 18.5532 17.3299 18.5532 16.9751 18.5532C16.9043 18.5591 16.833 18.55 16.7659 18.5265C16.6989 18.5031 16.6375 18.4657 16.5858 18.4168C16.5342 18.368 16.4934 18.3088 16.4662 18.2431C16.439 18.1774 16.4259 18.1067 16.4279 18.0356C16.4279 17.8611 16.4279 17.6866 16.4279 17.506H5.69367V18.0115C5.70131 18.0874 5.69189 18.1641 5.6661 18.2359C5.64031 18.3077 5.59879 18.3728 5.54459 18.4265C5.4904 18.4801 5.42489 18.521 5.35288 18.546C5.28086 18.5711 5.20416 18.5797 5.12839 18.5712C4.79163 18.5712 4.44886 18.5712 4.1121 18.5712C4.03649 18.5777 3.96037 18.5675 3.88914 18.5413C3.81791 18.5151 3.75332 18.4736 3.69994 18.4196C3.64657 18.3656 3.60572 18.3005 3.5803 18.2289C3.55487 18.1574 3.5455 18.0811 3.55284 18.0055C3.54441 17.4002 3.48811 16.7965 3.38446 16.2001C3.33034 15.7006 3.26419 15.2071 3.20406 14.7136L3.00561 13.161C2.96352 12.824 2.92743 12.481 2.87933 12.1259C2.58466 12.1259 2.27797 12.1259 2.01337 12.1259C1.93232 12.1344 1.85038 12.1247 1.77355 12.0975C1.69672 12.0702 1.62695 12.0262 1.56931 11.9685C1.51168 11.9108 1.46765 11.841 1.44044 11.7641C1.41322 11.6872 1.40351 11.6052 1.41202 11.5241C1.41202 11.2172 1.41202 10.9223 1.41202 10.5973C1.39984 10.5155 1.407 10.4319 1.43291 10.3533C1.45883 10.2748 1.50278 10.2034 1.56125 10.1449C1.61971 10.0863 1.69106 10.0424 1.76958 10.0164C1.8481 9.99049 1.93159 9.98333 2.01337 9.99551H2.59669L2.48243 8.90625H19.6571Z" fill="#2F7D96"/>
<path d="M6.06469 3.53149C5.8903 4.38003 5.72192 5.21653 5.55354 6.04702C5.43928 6.60068 5.32502 7.14832 5.21678 7.69596C5.21678 7.78623 5.17468 7.81632 5.07847 7.81632H1.92135C1.8394 7.81472 1.75883 7.79492 1.68546 7.75834C1.6121 7.72177 1.54777 7.66933 1.49712 7.60483C1.44648 7.54033 1.4108 7.46538 1.39264 7.38539C1.37449 7.30539 1.37433 7.22237 1.39216 7.1423C1.66878 6.07109 1.93939 5.0059 2.21 3.93469C2.23276 3.81846 2.29605 3.71411 2.38858 3.64025C2.4811 3.5664 2.59684 3.52785 2.71514 3.53149H6.06469Z" fill="#2F7D96"/>
<path d="M16.0841 3.52996H19.3555C19.4248 3.51892 19.4955 3.52192 19.5636 3.53879C19.6316 3.55566 19.6956 3.58605 19.7517 3.62815C19.8078 3.67026 19.8549 3.72322 19.8901 3.78388C19.9254 3.84455 19.9481 3.91169 19.9569 3.98131C20.2094 5.02845 20.464 6.0816 20.7206 7.14078C20.7431 7.22394 20.7458 7.3112 20.7287 7.39563C20.7116 7.48006 20.675 7.55931 20.6218 7.6271C20.5687 7.69488 20.5005 7.74932 20.4226 7.78608C20.3448 7.82285 20.2594 7.84092 20.1734 7.83887H17.1064C16.9802 7.83887 16.932 7.83887 16.908 7.6824C16.6374 6.31631 16.3547 4.95623 16.0781 3.59014C16.083 3.57047 16.085 3.5502 16.0841 3.52996Z" fill="#2F7D96"/>
<path d="M15.8228 7.81609H11.6133V3.53125H14.9568L15.8228 7.81609Z" fill="#2F7D96"/>
<path d="M6.30469 7.81609L7.17064 3.53125H10.5082V7.81609H6.30469Z" fill="#2F7D96"/>
</svg>
