<svg width="48" height="48" viewBox="0 0 48 48" fill="none" xmlns="http://www.w3.org/2000/svg">
<path opacity="0.15" d="M10.666 18.9974C10.666 17.1564 12.1584 15.6641 13.9993 15.6641H33.9993C35.8403 15.6641 37.3327 17.1564 37.3327 18.9974V33.9974C37.3327 35.8383 35.8403 37.3307 33.9993 37.3307H13.9993C12.1584 37.3307 10.666 35.8383 10.666 33.9974V18.9974Z" fill="#115175"/>
<path d="M18.166 26.5H29.8327M23.9993 20.6667V32.3333M28.9993 15.6667V12.3333C28.9993 10.4924 27.507 9 25.666 9H22.3327C20.4917 9 18.9993 10.4924 18.9993 12.3333V15.6667M13.9993 15.6667H33.9993C35.8403 15.6667 37.3327 17.1591 37.3327 19V34C37.3327 35.8409 35.8403 37.3333 33.9993 37.3333H13.9993C12.1584 37.3333 10.666 35.8409 10.666 34V19C10.666 17.1591 12.1584 15.6667 13.9993 15.6667Z" stroke="#115175" stroke-width="1.5" stroke-linecap="round" stroke-linejoin="round"/>
</svg>
