<svg width="40" height="41" viewBox="0 0 40 41" fill="none" xmlns="http://www.w3.org/2000/svg">
<path d="M14.9987 15.7969H24.9987M31.6654 9.13021V34.1302C31.6654 34.5722 31.4898 34.9962 31.1772 35.3087C30.8646 35.6213 30.4407 35.7969 29.9987 35.7969H9.9987C9.55667 35.7969 9.13275 35.6213 8.82019 35.3087C8.50763 34.9962 8.33203 34.5722 8.33203 34.1302V7.46354C8.33203 7.02151 8.50763 6.59759 8.82019 6.28503C9.13275 5.97247 9.55667 5.79688 9.9987 5.79688H28.332L31.6654 9.13021ZM28.332 5.79688V9.13021H31.6654L28.332 5.79688ZM24.9987 29.1302H14.9987H24.9987ZM14.9987 22.4635H24.9987H14.9987Z" stroke="white" stroke-width="1.5" stroke-linecap="round" stroke-linejoin="round"/>
</svg>
