<svg width="32" height="33" viewBox="0 0 32 33" fill="none" xmlns="http://www.w3.org/2000/svg">
<path opacity="0.15" d="M10.6654 20.3125C6.66536 20.3125 5.33203 21.6458 5.33203 21.6458V5.64583C5.33203 5.64583 6.66536 4.3125 10.6654 4.3125C14.6654 4.3125 17.332 6.97917 21.332 6.97917C25.332 6.97917 26.6654 5.64583 26.6654 5.64583V21.6458C26.6654 21.6458 25.332 22.9792 21.332 22.9792C17.332 22.9792 14.6654 20.3125 10.6654 20.3125Z" fill="#E45D61"/>
<path d="M5.33203 28.4606V21.794M5.33203 21.794V5.79398C5.33203 5.79398 9.33203 2.46065 15.9987 5.79398C22.6654 9.12731 26.6654 5.79398 26.6654 5.79398V21.794C26.6654 21.794 22.6654 25.1273 15.9987 21.794C9.33203 18.4606 5.33203 21.794 5.33203 21.794Z" stroke="#E45D61" stroke-width="1.5" stroke-linecap="round" stroke-linejoin="round"/>
</svg>
