<svg width="48" height="48" viewBox="0 0 48 48" fill="none" xmlns="http://www.w3.org/2000/svg">
<path opacity="0.15" d="M35.6673 24.0026C35.6673 30.4459 30.444 35.6693 24.0007 35.6693C17.5573 35.6693 12.334 30.4459 12.334 24.0026C12.334 17.5593 17.5573 12.3359 24.0007 12.3359C30.444 12.3359 35.6673 17.5593 35.6673 24.0026Z" fill="#115175"/>
<path d="M18.1659 13.8937L16.0826 10.2852M13.8957 18.1641L10.2873 16.0807M12.3327 23.9974H8.16602M12.3327 23.9974C12.3327 30.4407 17.556 35.6641 23.9993 35.6641M12.3327 23.9974C12.3327 17.5541 17.556 12.3307 23.9993 12.3307M13.8956 29.8307L10.2872 31.9141M18.1659 34.1011L16.0826 37.7095M23.9993 39.8307V35.6641M23.9993 35.6641C30.4427 35.6641 35.666 30.4407 35.666 23.9974M31.9162 37.7095L29.8329 34.1011M37.7113 31.9141L34.1029 29.8307M39.8327 23.9974H35.666M35.666 23.9974C35.666 17.5541 30.4427 12.3307 23.9993 12.3307M37.7115 16.0807L34.1031 18.1641M28.9993 28.9974V29.014M31.9161 10.2852L29.8328 13.8937M23.9993 12.3307V8.16406M17.3327 22.3307V22.3474M22.3327 28.9974C22.3327 29.9179 21.5865 30.6641 20.666 30.6641C19.7455 30.6641 18.9993 29.9179 18.9993 28.9974C18.9993 28.0769 19.7455 27.3307 20.666 27.3307C21.5865 27.3307 22.3327 28.0769 22.3327 28.9974ZM28.9993 20.6641C28.9993 22.505 27.507 23.9974 25.666 23.9974C23.8251 23.9974 22.3327 22.505 22.3327 20.6641C22.3327 18.8231 23.8251 17.3307 25.666 17.3307C27.507 17.3307 28.9993 18.8231 28.9993 20.6641Z" stroke="#115175" stroke-width="1.5" stroke-linecap="round" stroke-linejoin="round"/>
</svg>
