<svg width="48" height="48" viewBox="0 0 48 48" fill="none" xmlns="http://www.w3.org/2000/svg">
<path d="M24.0001 32.3333L19.0001 37.3333M24.0001 32.3333L29.0001 37.3333M24.0001 32.3333V24M24.0001 32.3333V39M24.0001 15.6667L19.0001 10.6667M24.0001 15.6667L29.0001 10.6667M24.0001 15.6667V24M24.0001 15.6667V9M24.0001 24L16.7833 19.8333M24.0001 24L31.217 28.1667M24.0001 24L16.7833 28.1666M24.0001 24L31.217 19.8332M31.217 28.1667L33.0471 34.9968M31.217 28.1667L38.0471 26.3365M31.217 28.1667L36.9905 31.5M16.7833 19.8333L9.95313 21.6635M16.7833 19.8333L14.9531 13.0032M16.7833 19.8333L11.0097 16.5M31.217 19.8332L38.0471 21.6634M31.217 19.8332L33.0471 13.0031M31.217 19.8332L36.9906 16.5M16.7833 28.1666L14.9531 34.9967M16.7833 28.1666L9.95312 26.3364M16.7833 28.1666L11.0098 31.5" stroke="#115175" stroke-width="1.5" stroke-linecap="round" stroke-linejoin="round"/>
</svg>
