<svg width="41" height="40" viewBox="0 0 41 40" fill="none" xmlns="http://www.w3.org/2000/svg">
<path opacity="0.15" d="M8.83464 9.16406H32.168C33.0884 9.16406 33.8346 9.91025 33.8346 10.8307V25.8307C33.8346 26.7512 33.0884 27.4974 32.168 27.4974H34.2513C35.4019 27.4974 36.3346 28.4301 36.3346 29.5807C36.3346 30.7313 35.4019 31.6641 34.2513 31.6641H6.7513C5.60071 31.6641 4.66797 30.7313 4.66797 29.5807C4.66797 28.4301 5.60071 27.4974 6.7513 27.4974H8.83464C7.91416 27.4974 7.16797 26.7512 7.16797 25.8307V10.8307C7.16797 9.91025 7.91416 9.16406 8.83464 9.16406Z" fill="#115175"/>
<path d="M32.168 27.4974H8.83464M32.168 27.4974C33.0884 27.4974 33.8346 26.7512 33.8346 25.8307V10.8307C33.8346 9.91025 33.0884 9.16406 32.168 9.16406H8.83464C7.91416 9.16406 7.16797 9.91025 7.16797 10.8307V25.8307C7.16797 26.7512 7.91416 27.4974 8.83464 27.4974M32.168 27.4974H34.2513C35.4019 27.4974 36.3346 28.4301 36.3346 29.5807C36.3346 30.7313 35.4019 31.6641 34.2513 31.6641H6.7513C5.60071 31.6641 4.66797 30.7313 4.66797 29.5807C4.66797 28.4301 5.60071 27.4974 6.7513 27.4974H8.83464" stroke="#115175" stroke-width="1.5" stroke-linecap="round" stroke-linejoin="round"/>
</svg>
