<svg width="14" height="8" viewBox="0 0 14 8" fill="none" xmlns="http://www.w3.org/2000/svg">
<path d="M9.2541 0.125C9.33312 0.0416664 9.41707 0 9.50596 0C9.59485 0 9.6788 0.0416664 9.75782 0.125L13.1949 3.74999C13.274 3.81249 13.3135 3.89582 13.3135 3.99999C13.3135 4.10416 13.274 4.18749 13.1949 4.24999L9.75782 7.87498C9.6788 7.95831 9.59485 7.99998 9.50596 7.99998C9.41707 7.99998 9.33312 7.95831 9.2541 7.87498L9.04669 7.65623C8.96767 7.59373 8.92817 7.5104 8.92817 7.40623C8.92817 7.30207 8.96767 7.20832 9.04669 7.12498L11.5356 4.53124H0.394627C0.295859 4.53124 0.211906 4.49478 0.142769 4.42186C0.0736314 4.34895 0.0390625 4.26041 0.0390625 4.15624V3.84374C0.0390625 3.73957 0.0736314 3.65103 0.142769 3.57812C0.211906 3.5052 0.295859 3.46874 0.394627 3.46874H11.5356L9.04669 0.874998C8.96767 0.791665 8.92817 0.697915 8.92817 0.593749C8.92817 0.489582 8.96767 0.406249 9.04669 0.343749L9.2541 0.125Z" fill="#115175"/>
</svg>
