<svg width="25" height="24" viewBox="0 0 25 24" fill="none" xmlns="http://www.w3.org/2000/svg">
<path d="M12.9805 22C8.01769 22 3.98047 18.1662 3.98047 13V11C3.98047 10.601 4.60629 10 4.98047 10C5.35465 10 4.98047 10.6113 4.98047 11V13C4.98047 17.3683 8.77589 21 12.9805 21C17.185 21 20.9805 17.3683 20.9805 13V11C20.9805 10.601 20.6063 10 20.9805 10C21.3546 10 21.9805 10.6113 21.9805 11V13C22.0002 18.1662 17.9433 22 12.9805 22Z" fill="#FFB74D"/>
<path d="M12.9805 2C9.67555 2 6.98047 4.61812 6.98047 8V13C6.98047 16.3819 9.67555 19 12.9805 19C16.2854 19 18.9805 16.3819 18.9805 13V8C18.9805 4.61812 16.2854 2 12.9805 2ZM14.9805 11C14.9116 11.2718 15.246 11 14.9805 11C14.9313 11 14.0296 11.0101 13.9805 11C12.9772 10.7182 11.9837 10.7182 10.9805 11C10.6559 11.0906 11.069 11.3321 10.9805 11C10.8919 10.6779 10.6559 10.0906 10.9805 10C12.1903 9.65779 13.7706 9.65779 14.9805 10C15.3051 10.0906 15.069 10.6679 14.9805 11ZM15.9805 8C15.8919 8.25163 15.2264 8 14.9805 8C14.9116 8 15.0493 8.0302 14.9805 8C13.4756 7.43635 12.4854 7.43635 10.9805 8C10.6657 8.12078 10.0985 8.32208 9.98047 8C9.87227 7.68798 9.66571 7.12078 9.98047 7C11.751 6.34577 14.2198 6.34577 15.9805 7C16.2952 7.12078 16.0887 7.68798 15.9805 8Z" fill="#FFB74D"/>
</svg>
