<svg width="48" height="48" viewBox="0 0 48 48" fill="none" xmlns="http://www.w3.org/2000/svg">
<path d="M23.2015 21.8248C23.326 21.774 23.4324 21.6872 23.5072 21.5754C23.5819 21.4637 23.6215 21.3322 23.6209 21.1977V4.67415C23.6209 4.49536 23.5499 4.3239 23.4235 4.19748C23.297 4.07105 23.1256 4.00003 22.9468 4.00003C18.474 3.99138 14.1752 5.73282 10.9695 8.85208C10.8428 8.97782 10.7697 9.14781 10.7657 9.32631C10.7641 9.41539 10.7802 9.50391 10.8132 9.58668C10.8462 9.66946 10.8953 9.74482 10.9578 9.80838L22.4608 21.6837C22.5238 21.7491 22.5993 21.8012 22.6827 21.8369C22.7662 21.8726 22.856 21.8911 22.9468 21.8915C23.0354 21.8871 23.1221 21.8644 23.2015 21.8248ZM22.2688 19.5242L12.4079 9.33415C15.136 6.90894 18.6213 5.5057 22.2688 5.36394V19.5242Z" fill="#E45D61"/>
<path d="M22.8913 24.7489C22.9004 24.6517 22.8882 24.5538 22.8558 24.4617C22.8233 24.3697 22.7712 24.2858 22.7031 24.2159L11.2001 12.3405C11.0743 12.2111 10.9025 12.1364 10.722 12.1328C10.5439 12.1335 10.3728 12.2022 10.2438 12.3249C7.28745 15.1826 5.45313 19.0053 5.07348 23.0995C4.69382 27.1937 5.79398 31.2885 8.17444 34.6411C8.27977 34.7859 8.43751 34.8837 8.61399 34.9137C8.79048 34.9438 8.9717 34.9036 9.11897 34.8018L22.6208 25.2388C22.698 25.1809 22.762 25.1073 22.8086 25.0229C22.8552 24.9384 22.8834 24.8451 22.8913 24.7489ZM8.90342 33.2968C6.97203 30.3122 6.10012 26.7649 6.42781 23.2251C6.75549 19.6852 8.26374 16.3583 10.7102 13.7789L21.1864 24.5921L8.90342 33.2968Z" fill="#E45D61"/>
<path d="M43.2606 24.1482C43.2253 23.8699 43.1782 23.5916 43.1312 23.3134C43.0226 22.7214 42.884 22.1354 42.7158 21.5575C42.6413 21.3067 42.5669 21.0637 42.4806 20.8207C42.3037 20.2875 42.0983 19.7642 41.8653 19.253C41.7673 19.0335 41.6615 18.8141 41.5557 18.5985C41.3166 18.1243 41.054 17.6579 40.7718 17.1993C40.6504 17.0034 40.5249 16.8074 40.3799 16.6154C40.0546 16.1411 39.7058 15.6787 39.3374 15.2397C39.1924 15.0633 39.0434 14.8909 38.8906 14.7184C38.5535 14.3265 38.189 13.9777 37.8089 13.625C37.6443 13.4721 37.4757 13.3193 37.3033 13.1703C36.9114 12.8333 36.5194 12.5119 36.0883 12.214C35.9002 12.0769 35.6964 11.9436 35.5161 11.8221C35.0654 11.5203 34.6068 11.246 34.1561 11.003C33.9484 10.8893 33.7328 10.7796 33.5173 10.6738C32.9646 10.405 32.3981 10.1656 31.8202 9.95653C31.5811 9.87031 31.3421 9.788 31.0991 9.70962C30.5347 9.53325 29.9547 9.38432 29.3668 9.26282C29.0964 9.20795 28.8259 9.16093 28.5476 9.11781C27.8893 9.01835 27.2259 8.95554 26.5606 8.92969C26.3293 8.92969 26.0942 8.92969 25.859 8.92969C25.7268 8.92969 25.5958 8.95574 25.4736 9.00636C25.3514 9.05698 25.2403 9.13117 25.1468 9.22471C25.0533 9.31824 24.9791 9.42927 24.9285 9.55148C24.8778 9.67368 24.8518 9.80466 24.8518 9.93694V25.9393L11.8046 35.2005C11.6964 35.2767 11.6044 35.3735 11.5338 35.4853C11.4632 35.5972 11.4154 35.7219 11.3932 35.8523C11.3709 35.9827 11.3747 36.1162 11.4043 36.2452C11.4339 36.3741 11.4887 36.4959 11.5655 36.6036L11.6321 36.6898C11.9143 37.0817 12.2278 37.4737 12.5923 37.9048C12.7413 38.0772 12.8941 38.2497 13.047 38.4143C13.384 38.7749 13.7564 39.1393 14.1483 39.4882C14.3168 39.641 14.4893 39.7899 14.6656 39.9389C15.1477 40.3308 15.5984 40.6796 16.0413 40.9814C16.202 41.0872 16.3666 41.193 16.5351 41.2949L16.6331 41.3537C17.0877 41.6359 17.5541 41.8985 18.0284 42.1376C18.2439 42.2434 18.4595 42.3531 18.679 42.4472C19.1906 42.6792 19.7138 42.8846 20.2467 43.0625C20.4897 43.1448 20.7326 43.2232 20.9756 43.2938C21.5531 43.4655 22.1392 43.6068 22.7315 43.717C23.0097 43.768 23.2919 43.8072 23.5702 43.8425C24.3132 43.944 25.0621 43.9964 25.812 43.9992H25.8786C26.1961 43.9992 26.5096 43.9992 26.8193 43.9718C27.6554 43.9279 28.4871 43.8232 29.308 43.6583C29.7234 43.576 30.1389 43.478 30.5817 43.3525C33.1315 42.6468 35.4858 41.3665 37.464 39.6097C38.0212 39.1229 38.5449 38.5992 39.0317 38.042C39.9086 37.054 40.67 35.9692 41.3009 34.8086C41.9279 33.6512 42.4235 32.4273 42.7785 31.1597C42.9 30.709 43.0019 30.2936 43.0842 29.886C43.2455 29.0645 43.3503 28.233 43.3977 27.3972C43.4134 27.0837 43.4212 26.7702 43.4212 26.4566V26.4057C43.4151 25.6505 43.3615 24.8966 43.2606 24.1482ZM42.0417 27.3267C41.9984 28.0981 41.9015 28.8655 41.7517 29.6234C41.6772 30.0153 41.5831 30.3837 41.4694 30.7992C41.1438 31.9688 40.6876 33.0981 40.1095 34.1658C39.5241 35.2364 38.8208 36.2381 38.0127 37.1523C37.5625 37.6652 37.0794 38.1483 36.5665 38.5985C34.7418 40.2217 32.568 41.4032 30.2133 42.0514C29.8214 42.1689 29.4295 42.2591 29.0376 42.3335C28.2801 42.4863 27.5125 42.5832 26.7409 42.6236C26.4509 42.6236 26.1647 42.651 25.8708 42.6471H25.8277C25.129 42.6428 24.4313 42.5944 23.7387 42.5021C23.48 42.4668 23.2214 42.4315 22.9549 42.3845C22.4336 42.2865 21.9045 42.1611 21.3362 41.9926C21.1089 41.9259 20.8855 41.8515 20.6621 41.777C20.1291 41.5928 19.6588 41.4086 19.2198 41.2087C19.0121 41.1186 18.8279 41.0206 18.6163 40.9226C18.1851 40.7031 17.7501 40.4601 17.3307 40.1975L17.2288 40.1388L16.782 39.8527C16.3901 39.5783 15.9629 39.2648 15.5161 38.8924C15.3554 38.7592 15.1947 38.6181 15.038 38.477C14.6735 38.1556 14.3325 37.8186 14.0229 37.4854C13.8779 37.3286 13.7407 37.1719 13.6035 37.0151C13.3292 36.6976 13.0823 36.3919 12.8589 36.0941L25.9217 26.8368C26.0108 26.7749 26.0834 26.6922 26.1333 26.5959C26.1831 26.4996 26.2087 26.3926 26.2079 26.2842V10.274H26.5096C27.1225 10.2968 27.7336 10.3543 28.3399 10.4464C28.5947 10.4856 28.8494 10.5327 29.0964 10.5836C29.6372 10.6934 30.1741 10.8344 30.6954 10.9951C30.9188 11.0657 31.1383 11.1401 31.3578 11.2225C31.8919 11.4149 32.4152 11.636 32.9255 11.8848C33.1214 11.9828 33.3174 12.0808 33.5173 12.1866C33.9092 12.41 34.3482 12.6608 34.7714 12.943C34.9478 13.0567 35.1203 13.1782 35.2966 13.3075C35.6886 13.5818 36.057 13.8797 36.4175 14.1933C36.5782 14.3304 36.735 14.4676 36.8878 14.6126C37.2367 14.9379 37.5737 15.2789 37.8833 15.6238C38.0244 15.7806 38.1655 15.9412 38.2988 16.1019C38.6399 16.5102 38.9604 16.9353 39.259 17.3757C39.3805 17.5521 39.4941 17.7323 39.6078 17.9126C39.8665 18.332 40.1095 18.767 40.329 19.2021C40.427 19.398 40.5249 19.594 40.6151 19.8056C40.8291 20.275 41.0188 20.7551 41.1833 21.244C41.2617 21.4674 41.3323 21.6908 41.3989 21.922C41.5585 22.4555 41.6893 22.9971 41.7908 23.5446C41.8379 23.7994 41.877 24.058 41.9123 24.3285C42.003 25.0198 42.0501 25.7162 42.0534 26.4135V26.4605C42.0652 26.7506 42.0534 27.0406 42.0417 27.311V27.3267Z" fill="#E45D61"/>
</svg>
