<svg width="48" height="49" viewBox="0 0 48 49" fill="none" xmlns="http://www.w3.org/2000/svg">
<path d="M0 26.7737C0 13.4314 8.90383 4.46786 22.1572 4.46786C22.2823 4.46714 22.4063 4.49223 22.5221 4.54163C22.638 4.59104 22.7432 4.6639 22.8321 4.75589C22.921 4.84788 22.9918 4.95719 23.0402 5.07774C23.0886 5.1983 23.1138 5.32771 23.1144 5.45845V20.6214C23.1142 20.7562 23.0877 20.8895 23.0365 21.0133C22.9854 21.1371 22.9106 21.2487 22.8168 21.3413C22.7263 21.44 22.6154 21.5157 22.4926 21.5626C22.3697 21.6095 22.2381 21.6263 22.108 21.6118C22.0798 21.6118 21.9097 21.5922 21.8784 21.59C21.028 21.5898 20.1968 21.8532 19.4897 22.3469C18.7826 22.8406 18.2315 23.5423 17.9061 24.3634C17.5807 25.1844 17.4956 26.0879 17.6617 26.9595C17.8278 27.8311 18.2375 28.6315 18.8391 29.2597C19.4406 29.8879 20.2069 30.3156 21.041 30.4885C21.8751 30.6614 22.7396 30.5719 23.525 30.2312C24.3105 29.8906 24.9815 29.3142 25.4534 28.5748C25.9253 27.8355 26.1767 26.9665 26.1759 26.0778C26.1721 25.9424 26.1588 25.8075 26.1361 25.6742C26.116 25.527 26.1249 25.3769 26.1622 25.2334C26.1996 25.0899 26.2645 24.956 26.3532 24.8397C26.4406 24.7265 26.5497 24.6335 26.6733 24.5668C26.797 24.5001 26.9325 24.4612 27.0714 24.4524H41.4291C41.5544 24.4519 41.6785 24.477 41.7944 24.5266C41.9103 24.5762 42.0158 24.6492 42.1047 24.7414C42.1936 24.8336 42.2642 24.9432 42.3125 25.0639C42.3608 25.1847 42.3859 25.3143 42.3863 25.4452C42.3863 39.19 33.8709 48.4219 21.1968 48.4219C9.30983 48.4208 0 38.9117 0 26.7737ZM1.91231 26.7737C1.91231 37.9834 10.2012 46.4343 21.1926 46.4343C32.5964 46.4343 40.0701 38.6194 40.4542 26.4356H28.0788C28.0213 27.6826 27.6226 28.8861 26.9302 29.9034C26.2378 30.9207 25.2806 31.709 24.1723 32.1749C23.064 32.6407 21.8512 32.7645 20.6776 32.5315C19.504 32.2985 18.4191 31.7184 17.5515 30.8603C16.6839 30.0022 16.0701 28.9019 15.7829 27.6901C15.4957 26.4783 15.5473 25.2059 15.9314 24.0238C16.3155 22.8417 17.0161 21.7996 17.9499 21.0211C18.8838 20.2427 20.0117 19.7604 21.1999 19.6319V6.46861C9.62186 6.8875 1.91333 14.9423 1.91333 26.7737H1.91231ZM26.8689 22.4354C26.7438 22.4362 26.6197 22.411 26.5039 22.3615C26.388 22.3121 26.2827 22.2391 26.1938 22.147C26.105 22.0549 26.0345 21.9454 25.9863 21.8248C25.938 21.7041 25.913 21.5746 25.9128 21.4438V1.41128C25.9133 1.28068 25.9386 1.15153 25.9869 1.0311C26.0353 0.91068 26.1058 0.801408 26.1946 0.709518C26.2834 0.617629 26.3887 0.545009 26.5044 0.495661C26.6201 0.446314 26.7439 0.421172 26.8689 0.42189C40.1004 0.42189 48 8.27606 48 21.4438C47.9996 21.5746 47.9744 21.7041 47.9261 21.8248C47.8777 21.9455 47.8072 22.055 47.7183 22.1472C47.6294 22.2393 47.5239 22.3121 47.408 22.3615C47.2921 22.411 47.168 22.4362 47.0428 22.4354H26.8689ZM27.8251 20.4523H46.069C45.7057 9.27753 39.115 2.76514 27.8251 2.41824V20.4523Z" fill="#115175"/>
</svg>
