<svg width="48" height="49" viewBox="0 0 48 49" fill="none" xmlns="http://www.w3.org/2000/svg">
<path d="M41.0003 0.421875H6.99975C5.14324 0.424899 3.36371 1.16338 2.0515 2.47545C0.739286 3.78752 0.00151132 5.566 0 7.42079V41.4218C0.00120869 43.2768 0.738869 45.0556 2.05112 46.3679C3.36336 47.6802 5.14304 48.4188 6.99975 48.4219H41.0003C42.857 48.4188 44.6366 47.6802 45.9489 46.3679C47.2611 45.0556 47.9988 43.2768 48 41.4218V7.42079C47.9985 5.566 47.2607 3.78752 45.9485 2.47545C44.6363 1.16338 42.8568 0.424899 41.0003 0.421875ZM6.99975 2.42093H23.0001V6.41903C22.9995 7.21403 22.6833 7.97621 22.1208 8.53857C21.5584 9.10093 20.7956 9.41752 19.9999 9.41873H18.613C18.0352 8.91032 17.3229 8.57916 16.5615 8.46508C15.8001 8.35099 15.022 8.45877 14.3203 8.77548C13.6187 9.09219 13.0234 9.60439 12.6058 10.2506C12.1883 10.8969 11.9662 11.6498 11.9662 12.419C11.9662 13.1882 12.1883 13.9411 12.6058 14.5873C13.0234 15.2336 13.6187 15.7458 14.3203 16.0625C15.022 16.3792 15.8001 16.487 16.5615 16.3729C17.3229 16.2588 18.0352 15.9276 18.613 15.4192H19.9965C20.7922 15.4204 21.555 15.737 22.1174 16.2994C22.6799 16.8618 22.9961 17.6239 22.9967 18.4189V23.42H17.9967C16.6705 23.4222 15.3993 23.9498 14.4619 24.8871C13.5246 25.8245 12.9976 27.0949 12.9967 28.4199V30.4213H13.0436C13.085 30.6168 13.1851 30.795 13.3306 30.932C13.6323 31.2018 13.845 31.5567 13.9403 31.9499C14.0357 32.3431 14.0094 32.7559 13.8648 33.1338C13.7203 33.5117 13.4643 33.8368 13.1308 34.0662C12.7972 34.2956 12.4018 34.4185 11.9969 34.4185C11.5919 34.4185 11.1965 34.2956 10.863 34.0662C10.5294 33.8368 10.2734 33.5117 10.1289 33.1338C9.98432 32.7559 9.95798 32.3431 10.0534 31.9499C10.1488 31.5567 10.3614 31.2018 10.6631 30.932C10.8086 30.795 10.9088 30.6168 10.9501 30.4213H10.997V28.4234C10.9961 27.0984 10.4691 25.8278 9.53179 24.8905C8.59444 23.9531 7.32324 23.4257 5.99703 23.4235H1.99522V7.42302C1.99552 6.09684 2.52281 4.82513 3.46121 3.88717C4.39961 2.94921 5.67234 2.42184 6.99975 2.42093ZM1.99979 41.4218V25.4202H6.0016C6.79723 25.4217 7.5598 25.7384 8.12218 26.3007C8.68457 26.863 9.00089 27.625 9.0018 28.4199V29.809C8.49206 30.386 8.15979 31.0976 8.04493 31.8586C7.93007 32.6195 8.03748 33.3975 8.35426 34.099C8.67103 34.8005 9.18371 35.3958 9.83075 35.8133C10.4778 36.2309 11.2317 36.4529 12.002 36.4529C12.7723 36.4529 13.5262 36.2309 14.1733 35.8133C14.8203 35.3958 15.333 34.8005 15.6498 34.099C15.9665 33.3975 16.0739 32.6195 15.9591 31.8586C15.8442 31.0976 15.512 30.386 15.0022 29.809V28.4234C15.0031 27.6285 15.3194 26.8664 15.8818 26.3041C16.4442 25.7418 17.2068 25.4252 18.0025 25.4237H23.0024V30.4247C23.0033 31.7497 23.5303 33.0203 24.4676 33.9576C25.4049 34.8949 26.6762 35.4226 28.0024 35.4247H30.0022V35.3778C30.198 35.3365 30.3764 35.2361 30.5132 35.09C30.7837 34.7888 31.1392 34.5766 31.5329 34.4816C31.9265 34.3866 32.3398 34.4131 32.718 34.5578C33.0962 34.7024 33.4216 34.9583 33.6512 35.2917C33.8807 35.625 34.0036 36.0201 34.0036 36.4248C34.0036 36.8294 33.8807 37.2244 33.6512 37.5577C33.4216 37.8911 33.0962 38.1471 32.718 38.2918C32.3398 38.4364 31.9265 38.4629 31.5329 38.3679C31.1392 38.2729 30.7837 38.0607 30.5132 37.7595C30.3767 37.6129 30.1982 37.5121 30.0022 37.4706V37.4249H28.0001C26.6738 37.4273 25.4025 37.9551 24.4652 38.8926C23.5279 39.8302 23.001 41.1009 23.0001 42.426V46.4241H6.99975C5.67323 46.4217 4.40184 45.8937 3.46449 44.9559C2.52714 44.0181 2.00039 42.7471 1.99979 41.4218ZM40.9991 46.4228H24.9999V42.4247C25.0002 41.6295 25.3163 40.867 25.8787 40.3043C26.4412 39.7417 27.2042 39.4251 28.0001 39.4239H29.3881C29.9659 39.9323 30.6782 40.2635 31.4396 40.3776C32.201 40.4916 32.9792 40.3839 33.6808 40.0672C34.3824 39.7505 34.9778 39.2382 35.3953 38.592C35.8129 37.9457 36.035 37.1929 36.035 36.4237C36.035 35.6544 35.8129 34.9016 35.3953 34.2553C34.9778 33.6091 34.3824 33.0969 33.6808 32.7802C32.9792 32.4634 32.201 32.3557 31.4396 32.4697C30.6782 32.5838 29.9659 32.9149 29.3881 33.4233H28.0001C27.2044 33.4221 26.4416 33.1056 25.8792 32.5432C25.3167 31.9809 25.0005 31.2186 24.9999 30.4236V25.4226H29.9999C31.3259 25.4205 32.5969 24.893 33.5342 23.9559C34.4715 23.0188 34.9986 21.7485 34.9998 20.4237V18.4224H34.9529C34.9115 18.227 34.8114 18.0488 34.666 17.9118C34.3642 17.642 34.1516 17.287 34.0562 16.8938C33.9608 16.5007 33.9872 16.0879 34.1317 15.71C34.2763 15.3321 34.5323 15.0069 34.8658 14.7775C35.1994 14.5481 35.5948 14.4253 35.9997 14.4253C36.4046 14.4253 36.8 14.5481 37.1336 14.7775C37.4671 15.0069 37.7231 15.3321 37.8677 15.71C38.0123 16.0879 38.0386 16.5007 37.9432 16.8938C37.8478 17.287 37.6352 17.642 37.3335 17.9118C37.1879 18.0488 37.0878 18.227 37.0465 18.4224H36.9996V20.4237C37.0008 21.7485 37.5279 23.0188 38.4652 23.9559C39.4025 24.893 40.6735 25.4205 41.9996 25.4226H46.0014V41.4241C45.9999 42.749 45.4726 44.0192 44.5351 44.9563C43.5976 45.8934 42.3264 46.4207 41.0003 46.4228H40.9991ZM45.9991 23.4223H41.9973C41.2016 23.4211 40.4388 23.1046 39.8764 22.5423C39.3139 21.9799 38.9977 21.2176 38.9971 20.4226V19.0336C39.5068 18.4566 39.8391 17.7449 39.9539 16.9839C40.0688 16.223 39.9614 15.4451 39.6446 14.7436C39.3279 14.0421 38.8151 13.4469 38.1681 13.0293C37.521 12.6118 36.7671 12.3897 35.9968 12.3897C35.2266 12.3897 34.4726 12.6118 33.8256 13.0293C33.1785 13.4469 32.6659 14.0421 32.3491 14.7436C32.0323 15.4451 31.9249 16.223 32.0398 16.9839C32.1547 17.7449 32.4869 18.4566 32.9966 19.0336V20.4226C32.996 21.2176 32.6798 21.9799 32.1174 22.5423C31.5549 23.1046 30.7922 23.4211 29.9964 23.4223H24.9964V18.4213C24.9952 17.0964 24.4682 15.8261 23.5309 14.8888C22.5936 13.9515 21.3226 13.4237 19.9965 13.4213H17.9967V13.4682C17.8009 13.5097 17.6226 13.6102 17.4856 13.7561C17.2151 14.0577 16.8594 14.2701 16.4655 14.3653C16.0715 14.4606 15.6579 14.4341 15.2794 14.2895C14.9008 14.1448 14.5751 13.8887 14.3454 13.5552C14.1156 13.2216 13.9925 12.8261 13.9925 12.4212C13.9925 12.0163 14.1156 11.621 14.3454 11.2874C14.5751 10.9538 14.9008 10.6978 15.2794 10.5531C15.6579 10.4084 16.0715 10.382 16.4655 10.4772C16.8594 10.5725 17.2151 10.7849 17.4856 11.0865C17.6221 11.2327 17.8007 11.3329 17.9967 11.3732V11.4211H19.9965C21.3227 11.419 22.5939 10.8914 23.5313 9.95405C24.4686 9.01671 24.9955 7.74626 24.9964 6.42127V2.42316H41.0003C42.3267 2.42528 43.5981 2.95307 44.5354 3.89066C45.4728 4.82824 45.9996 6.09895 46.0002 7.42414L45.9991 23.4223Z" fill="#115175"/>
</svg>
