<svg width="21" height="21" viewBox="0 0 21 21" fill="none" xmlns="http://www.w3.org/2000/svg">
<path d="M6.55742 9.70312C6.4108 9.4547 6.28164 9.19637 6.17088 8.93002C5.89377 8.25286 5.8225 7.50901 5.96598 6.79156C6.10947 6.0741 6.46134 5.41488 6.97757 4.8964C7.50588 4.31403 8.21022 3.92053 8.98309 3.77595C9.19366 3.73449 9.40723 3.71013 9.62172 3.70312C10.434 3.70313 11.2463 3.70313 12.0586 3.70313C12.9322 3.72349 13.7716 4.04622 14.4339 4.61629C14.8697 4.98307 15.2261 5.43484 15.4814 5.94402C15.5313 6.04852 15.5423 6.16735 15.5126 6.27924C15.4828 6.39113 15.4142 6.48876 15.319 6.55467C14.8521 6.80863 14.3816 7.04953 13.9073 7.27735C13.8489 7.3084 13.7849 7.32753 13.7191 7.33362C13.6532 7.33971 13.5869 7.33264 13.5238 7.31283C13.4607 7.29302 13.4022 7.26086 13.3517 7.21822C13.3011 7.17558 13.2596 7.12332 13.2294 7.06447C13.1261 6.84467 12.9695 6.6542 12.7738 6.51037C12.5782 6.36654 12.3496 6.27392 12.109 6.24094C12.0346 6.23261 11.9594 6.23261 11.8849 6.24094H9.72816C9.40311 6.24791 9.09139 6.37146 8.84983 6.58908C8.60827 6.8067 8.45295 7.10389 8.41221 7.42647C8.37146 7.74904 8.448 8.07552 8.62786 8.34638C8.80772 8.61723 9.07893 8.81442 9.39204 8.902C10.2491 9.1485 11.1007 9.42861 11.9522 9.69192C12.0428 9.72084 12.1372 9.73595 12.2323 9.73674H18.3329C18.409 9.72539 18.4868 9.73206 18.56 9.7562C18.6331 9.78035 18.6996 9.82129 18.754 9.87576C18.8085 9.93022 18.8495 9.9967 18.8736 10.0698C18.8977 10.143 18.9044 10.2208 18.8931 10.297V11.1933C18.902 11.2678 18.8934 11.3434 18.868 11.414C18.8425 11.4847 18.801 11.5484 18.7465 11.6C18.6921 11.6517 18.6264 11.69 18.5546 11.7118C18.4827 11.7336 18.4068 11.7383 18.3329 11.7255H3.49312C3.40744 11.7343 3.3211 11.7343 3.23542 11.7255C3.13508 11.6938 3.04789 11.63 2.98719 11.544C2.92649 11.458 2.89562 11.3545 2.8993 11.2493V10.2129C2.89522 10.1449 2.90561 10.0768 2.92978 10.0131C2.95396 9.9494 2.99137 9.89155 3.03955 9.84337C3.08772 9.79519 3.14557 9.75778 3.20927 9.7336C3.27297 9.70943 3.34108 9.69904 3.40909 9.70312H6.55742Z" fill="white"/>
<path d="M12.8046 12.7031H13.3648C14.0931 12.7031 14.8269 12.7031 15.5608 12.7031C15.6672 12.7031 15.712 12.7367 15.7344 12.8376C15.9205 13.4753 15.9329 14.1511 15.7704 14.7952C15.6079 15.4393 15.2764 16.0283 14.8101 16.5014C14.3014 17.0738 13.6217 17.4668 12.8718 17.6219C12.6021 17.6742 12.3286 17.7041 12.0539 17.7115C11.3425 17.7115 10.6366 17.7115 9.92516 17.7115C9.1956 17.7234 8.4772 17.5315 7.85074 17.1574C7.22428 16.7833 6.71462 16.2418 6.37908 15.5939C6.32199 15.4934 6.284 15.3833 6.26704 15.269C6.25162 15.1723 6.26994 15.0734 6.31891 14.9887C6.36788 14.904 6.44452 14.8388 6.53594 14.804C6.9785 14.5855 7.38184 14.3502 7.8188 14.1485C7.96381 14.0728 8.13267 14.0567 8.28937 14.1037C8.35156 14.1228 8.40883 14.1553 8.4572 14.1989C8.50557 14.2424 8.54388 14.2959 8.56947 14.3558C8.65549 14.5435 8.78116 14.7102 8.93783 14.8447C9.0945 14.9791 9.27845 15.078 9.477 15.1345C9.61905 15.1761 9.76598 15.1987 9.91395 15.2017C10.631 15.2017 11.3425 15.2017 12.0539 15.2017C12.3213 15.204 12.5829 15.1233 12.8026 14.9708C13.0223 14.8183 13.1893 14.6015 13.2808 14.3502C13.3958 14.1172 13.436 13.8543 13.3959 13.5976C13.3558 13.3409 13.2373 13.1028 13.0567 12.916C12.9839 12.86 12.9054 12.7984 12.8046 12.7031Z" fill="white"/>
</svg>
