<svg width="21" height="21" viewBox="0 0 21 21" fill="none" xmlns="http://www.w3.org/2000/svg">
<path d="M8.33841 12.9549C8.62031 12.6852 8.87223 12.4454 9.11815 12.1996C9.13156 12.1854 9.1413 12.1682 9.14652 12.1494C9.15175 12.1306 9.1523 12.1108 9.14814 12.0917C9.10302 11.8943 9.12585 11.6875 9.21293 11.5048C9.30001 11.322 9.44625 11.1739 9.62798 11.0846C9.80444 10.9963 10.0042 10.9656 10.199 10.997C10.3938 11.0283 10.5739 11.12 10.7138 11.2591C10.8536 11.3982 10.9462 11.5778 10.9785 11.7723C11.0107 11.9669 10.981 12.1667 10.8936 12.3435C10.8022 12.5191 10.6584 12.6619 10.4821 12.7522C10.3059 12.8424 10.1059 12.8756 9.90988 12.847C9.86927 12.8319 9.82454 12.8319 9.78393 12.847L9.04017 13.6084L9.11815 13.6983L11.5173 16.1382L12.405 17.0254C12.4611 17.0746 12.5043 17.1369 12.5306 17.2066C12.557 17.2764 12.5659 17.3516 12.5564 17.4256C12.5469 17.4996 12.5194 17.5701 12.4763 17.631C12.4332 17.6919 12.3758 17.7412 12.3091 17.7748C11.5602 18.2053 10.719 18.45 9.8559 18.4881C8.78063 18.5564 7.70742 18.3261 6.75494 17.8227C5.90494 17.3962 5.17144 16.7696 4.61764 15.9968C4.06385 15.224 3.70636 14.3282 3.576 13.3866C3.37158 12.1329 3.58218 10.8468 4.1758 9.72374C4.20349 9.65249 4.24704 9.58847 4.30316 9.53653C4.35927 9.4846 4.42648 9.44612 4.49969 9.424C4.57945 9.40123 4.66386 9.40035 4.74407 9.42145C4.82428 9.44255 4.89733 9.48484 4.95554 9.5439L7.53468 12.1157C7.79259 12.3794 8.0565 12.6672 8.33841 12.9549Z" fill="white"/>
<path d="M17.5328 12.8532H17.077C17.0155 12.8547 16.9544 12.8442 16.897 12.8222C16.8396 12.8002 16.7871 12.767 16.7426 12.7247C16.698 12.6824 16.6622 12.6317 16.6373 12.5756C16.6123 12.5195 16.5987 12.459 16.5971 12.3975C16.4925 10.4891 15.6493 8.69619 14.2459 7.39788C13.295 6.46328 12.0961 5.82047 10.7911 5.54549C10.3944 5.46996 9.99396 5.41593 9.59147 5.38363C9.45782 5.37589 9.33243 5.31653 9.24177 5.21809C9.15111 5.11965 9.10229 4.98984 9.10563 4.85609V4.04079C9.10563 3.65713 9.28557 3.48328 9.66944 3.50126C11.4159 3.57724 13.1013 4.16517 14.5158 5.1918C15.7764 6.09259 16.8044 7.28031 17.5148 8.65679C17.9674 9.53789 18.2618 10.4915 18.3845 11.4743C18.4205 11.7501 18.4505 12.0259 18.4685 12.3076C18.4685 12.6793 18.3185 12.8532 17.9467 12.8532H17.5328Z" fill="white"/>
<path d="M14.7209 12.8524H14.2231C14.169 12.8548 14.115 12.8465 14.0642 12.8278C14.0134 12.8092 13.9669 12.7806 13.9272 12.7438C13.8876 12.7069 13.8557 12.6626 13.8334 12.6133C13.8111 12.5641 13.7988 12.5108 13.7972 12.4568C13.7228 11.484 13.3447 10.5592 12.7162 9.81273C12.0878 9.06627 11.2406 8.53588 10.2944 8.29639C10.0612 8.24189 9.82481 8.20184 9.58664 8.17649C9.52368 8.17732 9.4612 8.16544 9.40294 8.14155C9.34468 8.11767 9.29185 8.08227 9.2476 8.03749C9.20336 7.99271 9.16861 7.93946 9.14545 7.88094C9.12228 7.82242 9.11118 7.75982 9.1128 7.69691V6.80968C9.1041 6.73959 9.11203 6.66845 9.13597 6.602C9.1599 6.53555 9.19916 6.47568 9.25057 6.42722C9.30197 6.37876 9.36407 6.34309 9.43184 6.32309C9.4996 6.30309 9.57113 6.29933 9.64062 6.31211C10.4288 6.35866 11.1997 6.5625 11.9079 6.91159C12.7699 7.30932 13.5341 7.89123 14.1466 8.6163C14.759 9.34136 15.2049 10.1919 15.4527 11.1079C15.5547 11.5219 15.6269 11.9426 15.6686 12.3669C15.6788 12.4322 15.674 12.499 15.6547 12.5623C15.6353 12.6255 15.6019 12.6835 15.5568 12.732C15.5118 12.7805 15.4564 12.8181 15.3947 12.8421C15.333 12.866 15.2667 12.8757 15.2008 12.8704L14.7209 12.8524Z" fill="white"/>
</svg>
