<svg width="21" height="21" viewBox="0 0 21 21" fill="none" xmlns="http://www.w3.org/2000/svg">
<path d="M8.16894 18.4965H4.43019C4.18294 18.495 3.94635 18.3956 3.77208 18.2203C3.5978 18.0449 3.49999 17.8077 3.5 17.5605C3.5 15.3525 3.5 13.1385 3.5 10.9245C3.51845 10.2982 3.74954 9.69674 4.15527 9.21912C4.561 8.7415 5.11721 8.41614 5.73245 8.29654C5.91877 8.26375 6.1074 8.24569 6.29656 8.24254H10.0653C10.4881 8.23575 10.9066 8.32831 11.287 8.51277C11.6675 8.69723 11.9993 8.96843 12.2558 9.30454C12.6506 9.77695 12.8634 10.3749 12.8559 10.9905C12.8559 13.1805 12.8559 15.3645 12.8559 17.5545C12.8454 17.8031 12.7411 18.0384 12.5641 18.2131C12.387 18.3879 12.1504 18.4892 11.9017 18.4965C10.6474 18.4965 9.40518 18.4965 8.16894 18.4965ZM5.84047 13.3365C5.83826 13.7973 5.97213 14.2484 6.22531 14.6334C6.47848 15.0183 6.83969 15.32 7.26365 15.5006C7.6876 15.6811 8.15544 15.7326 8.60851 15.6484C9.06158 15.5642 9.47971 15.3482 9.81048 15.0274C10.1413 14.7066 10.37 14.2953 10.4679 13.8451C10.5658 13.3949 10.5287 12.9258 10.3611 12.4967C10.1935 12.0675 9.90287 11.6973 9.52571 11.4326C9.14855 11.1679 8.70162 11.0204 8.24095 11.0085C7.9298 11.0014 7.62034 11.0562 7.33057 11.1697C7.0408 11.2833 6.77653 11.4533 6.55313 11.67C6.32973 11.8866 6.15167 12.1455 6.02932 12.4317C5.90697 12.7178 5.84277 13.0254 5.84047 13.3365Z" fill="white"/>
<path d="M10.0312 7.26869H6.31641V7.10069C6.31641 6.22469 6.31641 5.34269 6.31641 4.46669C6.3252 4.23768 6.41616 4.0195 6.57263 3.85204C6.72911 3.68457 6.94066 3.57902 7.16858 3.55469C7.85271 3.55469 8.53685 3.55469 9.22099 3.55469C9.43642 3.57173 9.63839 3.66621 9.78953 3.82063C9.94068 3.97505 10.0308 4.17898 10.0432 4.39469C10.0432 5.34269 10.0432 6.29069 10.0432 7.23269C10.0418 7.2454 10.0377 7.25768 10.0312 7.26869Z" fill="white"/>
<path d="M15.1913 9.19737C15.1313 9.11937 15.0773 9.08338 15.0593 9.03538C14.9513 8.79538 14.8613 8.54938 14.7592 8.30938C14.7323 8.25665 14.6906 8.21288 14.6392 8.18338C14.3992 8.08138 14.1591 7.99738 13.9251 7.89538C13.8711 7.89538 13.799 7.79938 13.805 7.75738C13.8133 7.72607 13.8284 7.69696 13.8491 7.67209C13.8698 7.64721 13.8958 7.62717 13.9251 7.61337C14.1471 7.51137 14.3752 7.42137 14.6032 7.33737C14.6434 7.32636 14.68 7.30508 14.7095 7.27562C14.7389 7.24617 14.7602 7.20955 14.7712 7.16938C14.8613 6.94137 14.9453 6.71337 15.0473 6.49137C15.0604 6.4603 15.08 6.43241 15.1049 6.40963C15.1297 6.38685 15.1592 6.3697 15.1913 6.35938C15.2393 6.35938 15.3113 6.43137 15.3353 6.48537C15.4374 6.71337 15.5274 6.94137 15.6114 7.17537C15.6224 7.21131 15.6418 7.24415 15.6678 7.27124C15.6939 7.29834 15.726 7.31894 15.7614 7.33137C16.0015 7.41537 16.2355 7.51137 16.4636 7.61337C16.4921 7.62581 16.5173 7.64478 16.5371 7.66876C16.5569 7.69273 16.5708 7.72104 16.5776 7.75137C16.5776 7.79937 16.5176 7.87137 16.4696 7.88937C16.2355 7.99737 15.9895 8.08138 15.7554 8.18338C15.6996 8.20804 15.6533 8.25014 15.6234 8.30337C15.5214 8.53737 15.4314 8.78337 15.3293 9.01737C15.2912 9.08299 15.2448 9.14348 15.1913 9.19737Z" fill="white"/>
<path d="M15.6172 10.5579C15.6952 10.4919 15.7372 10.4319 15.7972 10.4079C16.0193 10.3119 16.2533 10.2219 16.4874 10.1379C16.5233 10.1233 16.5557 10.1014 16.5826 10.0735C16.6095 10.0456 16.6302 10.0123 16.6434 9.97588C16.7274 9.74788 16.8174 9.51988 16.9194 9.29788C16.9194 9.23788 17.0095 9.17188 17.0575 9.17188C17.089 9.17978 17.1183 9.19467 17.1432 9.21544C17.1681 9.23622 17.1881 9.26234 17.2015 9.29187C17.3095 9.51987 17.3935 9.75987 17.4956 9.99387C17.521 10.0512 17.5655 10.0978 17.6216 10.1259C17.8556 10.2219 18.0957 10.3059 18.3237 10.4079C18.3777 10.4379 18.4558 10.5099 18.4558 10.5519C18.4441 10.5849 18.4259 10.6153 18.4022 10.6411C18.3785 10.6669 18.3497 10.6876 18.3177 10.7019C18.0897 10.8039 17.8496 10.8879 17.6216 10.9899C17.5646 11.0136 17.5193 11.0589 17.4956 11.1159C17.3935 11.3499 17.3035 11.5899 17.2015 11.8239C17.2015 11.8779 17.1115 11.9499 17.0695 11.9439C17.0372 11.936 17.0071 11.9212 16.9812 11.9004C16.9553 11.8797 16.9342 11.8536 16.9194 11.8239C16.8174 11.5899 16.7334 11.3559 16.6314 11.1219C16.6017 11.062 16.5532 11.0136 16.4934 10.9839L15.7792 10.7019C15.719 10.6613 15.6646 10.6129 15.6172 10.5579Z" fill="white"/>
<path d="M13.3259 3.5C13.3919 3.578 13.4459 3.62 13.4639 3.674C13.5659 3.914 13.6559 4.154 13.758 4.388C13.7817 4.44497 13.827 4.49026 13.884 4.514C14.118 4.616 14.3581 4.7 14.5921 4.802C14.6208 4.81672 14.6462 4.83706 14.6668 4.8618C14.6874 4.88654 14.7028 4.91517 14.7122 4.946C14.7122 5.03 14.6641 5.066 14.5921 5.09C14.3641 5.18 14.148 5.276 13.92 5.354C13.8749 5.37008 13.8342 5.3963 13.8009 5.43063C13.7676 5.46496 13.7426 5.50649 13.728 5.552C13.6499 5.774 13.5659 5.996 13.4699 6.206C13.4399 6.266 13.3739 6.338 13.3259 6.338C13.2779 6.338 13.2058 6.266 13.1818 6.206C13.0798 5.978 12.9958 5.738 12.8938 5.51C12.8664 5.45059 12.8199 5.40203 12.7618 5.372C12.5217 5.27 12.2817 5.186 12.0476 5.084C12.0191 5.07157 11.9939 5.05259 11.9741 5.02862C11.9543 5.00464 11.9404 4.97634 11.9336 4.946C11.9395 4.91527 11.953 4.88651 11.9729 4.86238C11.9928 4.83826 12.0185 4.81956 12.0476 4.808C12.2817 4.7 12.5277 4.616 12.7618 4.514C12.8195 4.48626 12.866 4.43971 12.8938 4.382C12.9958 4.142 13.0858 3.902 13.1878 3.668C13.2058 3.614 13.2599 3.572 13.3259 3.5Z" fill="white"/>
<path d="M15.6172 4.9485C15.6892 4.8885 15.7312 4.8285 15.7852 4.8105L16.4994 4.5165C16.5571 4.48876 16.6036 4.44221 16.6314 4.3845C16.7334 4.1505 16.8174 3.9105 16.9194 3.6765C16.9329 3.64756 16.9529 3.62218 16.9779 3.60238C17.0029 3.58258 17.0322 3.56892 17.0635 3.5625C17.0935 3.57016 17.1214 3.58435 17.1452 3.60406C17.1691 3.62377 17.1883 3.6485 17.2015 3.6765C17.3035 3.9045 17.3875 4.1445 17.4896 4.3725C17.5217 4.43765 17.5744 4.49037 17.6396 4.5225C17.8616 4.6245 18.1017 4.7025 18.3237 4.8045C18.3837 4.8045 18.4558 4.9005 18.4558 4.9485C18.4558 4.9965 18.3837 5.0625 18.3237 5.0925C18.1017 5.1885 17.8796 5.2785 17.6516 5.3625C17.61 5.37576 17.5723 5.39915 17.5419 5.43056C17.5115 5.46198 17.4894 5.50044 17.4776 5.5425C17.3935 5.7705 17.3035 5.9925 17.2075 6.2085C17.1775 6.2685 17.1115 6.3405 17.0635 6.3405C17.0155 6.3405 16.9435 6.2685 16.9194 6.2145C16.8174 5.9805 16.7274 5.7345 16.6314 5.5005C16.6058 5.44978 16.5633 5.4095 16.5114 5.3865L15.7912 5.0865C15.7277 5.04791 15.6692 5.00155 15.6172 4.9485Z" fill="white"/>
</svg>
