<svg width="32" height="33" viewBox="0 0 32 33" fill="none" xmlns="http://www.w3.org/2000/svg">
<path opacity="0.15" d="M16 22.9792L8 26.9792L10 18.9792L4 12.3125L12.6667 11.6458L16 4.3125L19.3333 11.6458L28 12.3125L22 18.9792L24 26.9792L16 22.9792Z" fill="#E45D61"/>
<path d="M16.4472 23.2028C16.1657 23.062 15.8343 23.062 15.5528 23.2028L9.94468 26.0068C9.18052 26.3889 8.32012 25.6987 8.52733 24.8699L9.87098 19.4953C9.95164 19.1726 9.86662 18.831 9.64413 18.5838L5.35917 13.8227C4.80404 13.2059 5.19838 12.2203 6.02577 12.1567L12.0775 11.6912C12.4409 11.6632 12.7604 11.4397 12.9112 11.1079L15.0896 6.31531C15.4449 5.53371 16.5551 5.53371 16.9104 6.31531L19.0888 11.1079C19.2396 11.4397 19.5591 11.6632 19.9225 11.6912L25.9742 12.1567C26.8016 12.2203 27.196 13.2059 26.6408 13.8227L22.3559 18.5838C22.1334 18.831 22.0484 19.1726 22.129 19.4953L23.4727 24.8699C23.6799 25.6987 22.8195 26.3889 22.0553 26.0068L16.4472 23.2028Z" stroke="#E45D61" stroke-width="1.5" stroke-linecap="round" stroke-linejoin="round"/>
</svg>
