<svg width="32" height="33" viewBox="0 0 32 33" fill="none" xmlns="http://www.w3.org/2000/svg">
<path opacity="0.15" d="M5.33203 10.9792C5.33203 9.50641 6.52594 8.3125 7.9987 8.3125H23.9987C25.4715 8.3125 26.6654 9.50641 26.6654 10.9792V16.3125C26.6654 17.7853 25.4715 18.9792 23.9987 18.9792H7.9987C6.52594 18.9792 5.33203 17.7853 5.33203 16.3125V10.9792Z" fill="#E45D61"/>
<path d="M15.9987 18.9792V16.3125M15.9987 18.9792V21.6458M15.9987 18.9792H23.9987C25.4715 18.9792 26.6654 17.7853 26.6654 16.3125M15.9987 18.9792H7.9987C6.52594 18.9792 5.33203 17.7853 5.33203 16.3125M26.6654 16.3125V24.3125C26.6654 25.7853 25.4715 26.9792 23.9987 26.9792H7.9987C6.52594 26.9792 5.33203 25.7853 5.33203 24.3125V16.3125M26.6654 16.3125V10.9792C26.6654 9.50641 25.4715 8.3125 23.9987 8.3125H7.9987C6.52594 8.3125 5.33203 9.50641 5.33203 10.9792V16.3125M19.9987 8.3125V6.97917C19.9987 5.50641 18.8048 4.3125 17.332 4.3125H14.6654C13.1926 4.3125 11.9987 5.50641 11.9987 6.97917V8.3125" stroke="#E45D61" stroke-width="1.5" stroke-linecap="round" stroke-linejoin="round"/>
</svg>
