<svg width="41" height="40" viewBox="0 0 41 40" fill="none" xmlns="http://www.w3.org/2000/svg">
<path opacity="0.15" d="M7.16797 13.3333C7.16797 11.4924 8.66035 10 10.5013 10H30.5013C32.3423 10 33.8346 11.4924 33.8346 13.3333V20C33.8346 21.8409 32.3423 23.3333 30.5013 23.3333H10.5013C8.66035 23.3333 7.16797 21.8409 7.16797 20V13.3333Z" fill="#115175"/>
<path d="M20.5013 23.3333V20M20.5013 23.3333V26.6667M20.5013 23.3333H30.5013C32.3423 23.3333 33.8346 21.8409 33.8346 20M20.5013 23.3333H10.5013C8.66035 23.3333 7.16797 21.8409 7.16797 20M33.8346 20V30C33.8346 31.8409 32.3423 33.3333 30.5013 33.3333H10.5013C8.66035 33.3333 7.16797 31.8409 7.16797 30V20M33.8346 20V13.3333C33.8346 11.4924 32.3423 10 30.5013 10H10.5013C8.66035 10 7.16797 11.4924 7.16797 13.3333V20M25.5013 10V8.33333C25.5013 6.49238 24.0089 5 22.168 5H18.8346C16.9937 5 15.5013 6.49238 15.5013 8.33333V10" stroke="#115175" stroke-width="1.5" stroke-linecap="round" stroke-linejoin="round"/>
</svg>
