<svg width="23" height="22" viewBox="0 0 23 22" fill="none" xmlns="http://www.w3.org/2000/svg">
<path d="M20.0443 12.8068C19.0008 12.1086 17.731 11.8412 16.4974 12.0597C15.2638 12.2783 14.1606 12.9661 13.4159 13.9811L6.1875 6.69613L6.29914 6.61878C6.99686 5.9156 7.72947 5.14913 8.47604 4.45298C9.52754 3.47623 10.8635 2.86716 12.2856 2.71612C13.9893 2.46442 15.7256 2.84689 17.1697 3.79198C18.0708 4.35571 18.8371 5.11328 19.4137 6.01044C19.9903 6.90761 20.3629 7.92217 20.5048 8.98147C20.6994 10.2281 20.5621 11.5045 20.1071 12.6802C20.0897 12.7241 20.0687 12.7664 20.0443 12.8068Z" fill="#2F7D96"/>
<path d="M5.13557 7.99219C5.16388 8.04859 5.19654 8.10266 5.23325 8.15392L12.4896 15.4389C12.5324 15.4763 12.5632 15.5257 12.5781 15.5808C12.593 15.6359 12.5913 15.6942 12.5733 15.7483C12.3 16.7674 12.3737 17.8493 12.7826 18.8212C12.4333 18.7875 12.0904 18.7047 11.764 18.5751C11.2384 18.3728 10.7624 18.0586 10.3685 17.6539C9.97778 17.2672 9.58705 16.8664 9.16144 16.4374C9.14566 16.4763 9.127 16.5139 9.10562 16.5499C8.14276 17.675 7.16595 18.786 6.22402 19.9252C6.16292 20.0191 6.08039 20.0969 5.98334 20.1521C5.88629 20.2073 5.77754 20.2382 5.66618 20.2424C5.55483 20.2465 5.44411 20.2237 5.3433 20.1758C5.24249 20.128 5.15451 20.0565 5.08673 19.9674C4.53552 19.3767 3.94943 18.8282 3.38428 18.2446C3.30532 18.1803 3.24225 18.0984 3.20004 18.0054C3.15782 17.9123 3.13761 17.8107 3.14099 17.7084C3.14437 17.6062 3.17126 17.5061 3.21953 17.4161C3.2678 17.3261 3.33614 17.2487 3.41916 17.1898L6.79615 14.2435L6.91476 14.131C6.84549 14.0876 6.78012 14.0382 6.7194 13.9833C6.3217 13.5895 5.93097 13.2028 5.54722 12.7879C4.99407 12.1696 4.64685 11.3923 4.55425 10.565C4.46165 9.73772 4.62833 8.90198 5.03091 8.17501C5.06156 8.11171 5.09653 8.05062 5.13557 7.99219Z" fill="#2F7D96"/>
<path d="M17.3101 20.233C16.8681 20.2535 16.4266 20.1836 16.0122 20.0273C15.5978 19.871 15.2192 19.6317 14.8992 19.3238C14.5792 19.0158 14.3245 18.6457 14.1505 18.2357C13.9764 17.8257 13.8867 17.3845 13.8867 16.9386C13.8867 16.4926 13.9764 16.0514 14.1505 15.6414C14.3245 15.2314 14.5792 14.8613 14.8992 14.5533C15.2192 14.2454 15.5978 14.0061 16.0122 13.8498C16.4266 13.6935 16.8681 13.6236 17.3101 13.6441C17.7521 13.6236 18.1936 13.6935 18.608 13.8498C19.0224 14.0061 19.401 14.2454 19.721 14.5533C20.041 14.8613 20.2957 15.2314 20.4697 15.6414C20.6438 16.0514 20.7335 16.4926 20.7335 16.9386C20.7335 17.3845 20.6438 17.8257 20.4697 18.2357C20.2957 18.6457 20.041 19.0158 19.721 19.3238C19.401 19.6317 19.0224 19.871 18.608 20.0273C18.1936 20.1836 17.7521 20.2535 17.3101 20.233Z" fill="#2F7D96"/>
</svg>
