<svg width="48" height="48" viewBox="0 0 48 48" fill="none" xmlns="http://www.w3.org/2000/svg">
<path opacity="0.15" d="M24.0007 22.3333C27.6825 22.3333 30.6673 19.3486 30.6673 15.6667C30.6673 11.9848 27.6825 9 24.0007 9C20.3188 9 17.334 11.9848 17.334 15.6667C17.334 19.3486 20.3188 22.3333 24.0007 22.3333Z" fill="#115175"/>
<path d="M30.666 29H17.3327C13.6508 29 10.666 31.9848 10.666 35.6667V39H37.3327V35.6667C37.3327 31.9848 34.3479 29 30.666 29Z" stroke="#115175" stroke-width="1.5" stroke-linecap="round" stroke-linejoin="round"/>
<path d="M23.9993 22.3333C27.6812 22.3333 30.666 19.3486 30.666 15.6667C30.666 11.9848 27.6812 9 23.9993 9C20.3175 9 17.3327 11.9848 17.3327 15.6667C17.3327 19.3486 20.3175 22.3333 23.9993 22.3333Z" stroke="#115175" stroke-width="1.5" stroke-linecap="round" stroke-linejoin="round"/>
</svg>
