<svg width="23" height="22" viewBox="0 0 23 22" fill="none" xmlns="http://www.w3.org/2000/svg">
<path d="M7.18599 17.9505C5.77023 17.9505 4.3599 17.9505 2.94415 17.9505C2.73494 17.9624 2.52557 17.9298 2.32989 17.8549C2.13422 17.78 1.95668 17.6644 1.80902 17.5158C1.66136 17.3672 1.54694 17.1889 1.47331 16.9928C1.39969 16.7967 1.36854 16.5873 1.38193 16.3783C1.38193 16.0042 1.38193 15.6193 1.38193 15.2398C1.44359 14.3946 1.83282 13.6068 2.4668 13.0441C2.81151 12.7221 3.21976 12.4757 3.66534 12.3208C4.11092 12.1658 4.584 12.1056 5.05422 12.1441C5.10943 12.1495 5.16297 12.1661 5.21152 12.1929C5.82201 12.4781 6.48769 12.6259 7.16158 12.6259C7.83546 12.6259 8.50114 12.4781 9.11163 12.1929C9.15669 12.1679 9.20669 12.1531 9.25809 12.1495C9.95 12.0949 10.6422 12.2518 11.2428 12.5994C11.8434 12.947 12.3242 13.4689 12.6212 14.0958C12.8437 14.5263 12.9573 15.0047 12.9521 15.4891C12.9521 15.8253 12.9521 16.1614 12.9521 16.4975C12.9564 16.6859 12.9232 16.8732 12.8544 17.0486C12.7856 17.224 12.6826 17.3839 12.5513 17.5192C12.4201 17.6544 12.2632 17.7621 12.0899 17.8362C11.9166 17.9102 11.7302 17.9491 11.5417 17.9505H7.18599Z" fill="#2F7D96"/>
<path d="M7.20185 4.39845C7.64797 4.39703 8.08999 4.48362 8.50256 4.65326C8.91513 4.82291 9.29015 5.07227 9.60611 5.38705C9.92207 5.70184 10.1728 6.07586 10.3438 6.48767C10.5149 6.89947 10.6029 7.34098 10.6029 7.78686C10.59 8.69564 10.2176 9.56234 9.56699 10.1973C8.91639 10.8323 8.04065 11.184 7.13133 11.1753C6.247 11.1461 5.4078 10.778 4.78772 10.1471C4.16764 9.51626 3.81423 8.6711 3.80078 7.78686C3.80508 6.88765 4.16513 6.02664 4.80233 5.39181C5.43954 4.75698 6.30214 4.39988 7.20185 4.39845Z" fill="#2F7D96"/>
<path d="M13.9668 16.9745C14.0013 16.2877 13.9868 15.5992 13.9234 14.9144C13.7894 14.0858 13.4118 13.3158 12.8385 12.7024L12.7734 12.6211C12.7734 12.6211 12.7734 12.6211 12.7734 12.5886C13.0963 12.4064 13.446 12.2765 13.8095 12.2037C13.9239 12.1794 14.0399 12.1631 14.1566 12.1549C14.3829 12.1358 14.6108 12.1579 14.8293 12.2199C15.5206 12.4422 16.2643 12.4422 16.9556 12.2199C17.2677 12.1291 17.5974 12.1161 17.9157 12.182C18.5786 12.2957 19.193 12.6029 19.6815 13.0651C20.1699 13.5272 20.5106 14.1235 20.6604 14.7788C20.7507 15.1334 20.7636 15.5032 20.6984 15.8631C20.6251 16.1648 20.4549 16.4341 20.2139 16.6299C19.973 16.8257 19.6744 16.9372 19.364 16.9474H13.9397L13.9668 16.9745Z" fill="#2F7D96"/>
<path d="M15.9185 5.36731C16.6747 5.36988 17.4002 5.66684 17.941 6.1952C18.4818 6.72356 18.7953 7.44172 18.8151 8.19731C18.835 8.58878 18.7754 8.98022 18.64 9.34809C18.5046 9.71596 18.2961 10.0526 18.0272 10.3379C17.7582 10.6231 17.4342 10.851 17.0748 11.0079C16.7154 11.1647 16.328 11.2473 15.9358 11.2506C15.5436 11.2539 15.1548 11.1778 14.7928 11.0271C14.4308 10.8763 14.1031 10.6538 13.8294 10.3731C13.5556 10.0925 13.3415 9.75932 13.2 9.39378C13.0584 9.02824 12.9923 8.63785 13.0056 8.24611C13.0063 7.86551 13.0823 7.48882 13.2294 7.13774C13.3764 6.78666 13.5915 6.46813 13.8623 6.20053C14.1331 5.93292 14.4542 5.72153 14.8071 5.57852C15.16 5.43552 15.5377 5.36374 15.9185 5.36731Z" fill="#2F7D96"/>
</svg>
