<svg width="40" height="41" viewBox="0 0 40 41" fill="none" xmlns="http://www.w3.org/2000/svg">
<path d="M5.0013 32.4661H1.66797V30.7995C1.66797 27.6931 3.79259 25.0829 6.66797 24.3428M10.0013 18.8483C8.05931 18.1619 6.66797 16.3099 6.66797 14.1328C6.66797 11.9558 8.05931 10.1037 10.0013 9.41734M35.0013 32.4661H38.3346V30.7995C38.3346 27.6931 36.21 25.0829 33.3346 24.3428M30.0013 9.41734C31.9433 10.1037 33.3346 11.9558 33.3346 14.1328C33.3346 16.3099 31.9433 18.1619 30.0013 18.8483M16.668 24.1328H23.3346C27.0165 24.1328 30.0013 27.1176 30.0013 30.7995V32.4661H10.0013V30.7995C10.0013 27.1176 12.9861 24.1328 16.668 24.1328ZM25.0013 14.1328C25.0013 16.8942 22.7627 19.1328 20.0013 19.1328C17.2399 19.1328 15.0013 16.8942 15.0013 14.1328C15.0013 11.3714 17.2399 9.13281 20.0013 9.13281C22.7627 9.13281 25.0013 11.3714 25.0013 14.1328Z" stroke="white" stroke-width="1.5" stroke-linecap="round" stroke-linejoin="round"/>
</svg>
