<svg width="41" height="40" viewBox="0 0 41 40" fill="none" xmlns="http://www.w3.org/2000/svg">
<path opacity="0.15" d="M5.5 16.6667C5.5 15.7462 6.24619 15 7.16667 15H27.1667C28.0871 15 28.8333 15.7462 28.8333 16.6667V31.6667C28.8333 32.5871 28.0871 33.3333 27.1667 33.3333H7.16667C6.24619 33.3333 5.5 32.5871 5.5 31.6667V16.6667Z" fill="#115175"/>
<path d="M5.5 20H33.8333C34.7538 20 35.5 19.2538 35.5 18.3333V6.66667C35.5 5.74619 34.7538 5 33.8333 5H18.8333C17.9129 5 17.1667 5.74619 17.1667 6.66667V15M35.5 10H17.1667M7.16667 15H27.1667C28.0871 15 28.8333 15.7462 28.8333 16.6667V31.6667C28.8333 32.5871 28.0871 33.3333 27.1667 33.3333H7.16667C6.24619 33.3333 5.5 32.5871 5.5 31.6667V16.6667C5.5 15.7462 6.24619 15 7.16667 15Z" stroke="#115175" stroke-width="1.5" stroke-linecap="round" stroke-linejoin="round"/>
</svg>
