<svg width="18" height="18" viewBox="0 0 18 18" fill="none" xmlns="http://www.w3.org/2000/svg">
<path d="M6.5133 7.99334L11.4843 5.50781M11.4867 12.4934L6.52035 10.0102M15.75 4.5C15.75 5.74264 14.7426 6.75 13.5 6.75C12.2574 6.75 11.25 5.74264 11.25 4.5C11.25 3.25736 12.2574 2.25 13.5 2.25C14.7426 2.25 15.75 3.25736 15.75 4.5ZM6.75 9C6.75 10.2426 5.74264 11.25 4.5 11.25C3.25736 11.25 2.25 10.2426 2.25 9C2.25 7.75736 3.25736 6.75 4.5 6.75C5.74264 6.75 6.75 7.75736 6.75 9ZM15.75 13.5C15.75 14.7426 14.7426 15.75 13.5 15.75C12.2574 15.75 11.25 14.7426 11.25 13.5C11.25 12.2574 12.2574 11.25 13.5 11.25C14.7426 11.25 15.75 12.2574 15.75 13.5Z" stroke="#9397AD" stroke-width="1.5"/>
</svg>
